<?xml version="1.0" encoding="UTF-8"?>
<svg version="1.1" xmlns="http://www.w3.org/2000/svg" width="413" height="603">
<path d="M0 0 C1.31626692 3.61973402 2 6.09567131 2 10 C1.34 10 0.68 10 0 10 C0 10.99 0 11.98 0 13 C0.75023437 12.77183594 0.75023437 12.77183594 1.515625 12.5390625 C4.90377784 11.80389726 8.29814562 11.58834821 11.75 11.375 C12.46285156 11.32996338 13.17570312 11.28492676 13.91015625 11.23852539 C18.77628323 10.97108857 23.22073736 11.10388826 28 12 C27.773125 11.443125 27.54625 10.88625 27.3125 10.3125 C27 8 27 8 28.1875 5.3125 C30 3 30 3 32.1875 2.1875 C32.785625 2.125625 33.38375 2.06375 34 2 C36.22698735 5.34048103 36.2711921 6.53285581 36.25 10.4375 C36.25773437 11.85869141 36.25773437 11.85869141 36.265625 13.30859375 C35.99748089 16.02552453 35.38531142 17.67465583 34 20 C34.99 20.66 35.98 21.32 37 22 C37 22.99 37 23.98 37 25 C38.65 24.67 40.3 24.34 42 24 C42.99 26.475 42.99 26.475 44 29 C45.09828125 28.34 46.1965625 27.68 47.328125 27 C52.51488478 24.41347486 57.07328009 24.60877739 62.75 25 C63.68199219 25.03222656 64.61398437 25.06445312 65.57421875 25.09765625 C72.26322409 25.47193345 72.26322409 25.47193345 75.25805664 27.6184082 C77.59141429 30.80858394 77.52724377 32.92384498 77.57421875 36.85546875 C77.58838333 37.51654129 77.60254791 38.17761383 77.61714172 38.85871887 C77.6589328 40.96847699 77.67423189 43.07738743 77.6875 45.1875 C77.7167371 47.27444898 77.75153419 49.36122134 77.78866577 51.44804382 C77.8235503 53.44225616 77.85153983 55.43658529 77.87939453 57.4309082 C77.98059198 60.42565628 78.23772194 63.28060174 78.66015625 66.2421875 C79 70 79 70 78.109375 72.33984375 C77.66078125 72.86707031 77.2121875 73.39429688 76.75 73.9375 C76.31171875 74.48277344 75.8734375 75.02804688 75.421875 75.58984375 C72.44418352 78.54299382 69.81890944 79.39656192 65.8125 80.125 C64.91144531 80.29257813 64.01039063 80.46015625 63.08203125 80.6328125 C62.39496094 80.75398438 61.70789063 80.87515625 61 81 C61.33 83.31 61.66 85.62 62 88 C58.71303767 88.79953138 57.28976808 89.09658936 54 88 C54 88.66 54 89.32 54 90 C56.31 90.33 58.62 90.66 61 91 C62.36843967 101.76151584 63.27944557 112.45309923 63.65795898 123.29736328 C63.83890983 128.28387144 64.19130374 133.16291889 64.89428711 138.10522461 C65 140 65 140 64 143 C64.29369827 144.34262065 64.6278958 145.67696283 65 147 C65 149.35004453 64.99408627 151.69979581 64.98413086 154.04980469 C64.96595208 158.62450475 64.95450935 163.19919994 64.94506836 167.77392578 C64.94007741 169.73649644 64.93328229 171.69906346 64.92456055 173.66162109 C64.87949749 184.08974152 64.92052044 194.43075633 65.78344727 204.82958984 C66.07935724 209.16181867 66.03006293 213.46580026 65.9375 217.8046875 C65.74788278 219.97678191 65.74788278 219.97678191 67 221 C67.28757455 222.59473162 67.5059635 224.20224767 67.6875 225.8125 C67.79449219 226.68519531 67.90148437 227.55789063 68.01171875 228.45703125 C67.99895916 231.22586307 67.42351761 232.66019519 66 235 C66.33 235.33 66.66 235.66 67 236 C67.04705962 237.56179116 67.03735852 239.12544667 67 240.6875 C66.95711366 243.70669815 67.0411353 246.20979002 67.625 249.1875 C68.11313418 252.84850635 67.17655418 255.53954653 66 259 C65.34 259 64.68 259 64 259 C64.185625 260.0828125 64.185625 260.0828125 64.375 261.1875 C64 264 64 264 61.25 266.4375 C60.69570313 266.85128906 60.14140625 267.26507813 59.5703125 267.69140625 C57.74663175 269.08086789 57.74663175 269.08086789 56.125 271.875 C52.73578667 276.85913726 48.12197345 280.42085697 43.3125 284 C40.7690223 286.19976449 39.13345365 288.50618413 37.25390625 291.26953125 C35.43342324 293.78191123 33.21801399 295.83885816 31 298 C30.34 298.9075 29.68 299.815 29 300.75 C27 303 27 303 24.375 303.875 C22 304 22 304 20 303 C20.33 303.66 20.66 304.32 21 305 C21.04022391 307.3329866 21.04320247 309.66706666 21 312 C21.556875 312.04125 22.11375 312.0825 22.6875 312.125 C25.61509128 313.23273724 26.76606235 315.08262461 28.6328125 317.51171875 C30.6846894 319.74533332 33.29310857 320.70807454 36 322 C36.495 323.485 36.495 323.485 37 325 C38.86022072 326.23277127 38.86022072 326.23277127 41.0625 327.1875 C42.16271484 327.70376953 42.16271484 327.70376953 43.28515625 328.23046875 C43.85105469 328.48441406 44.41695313 328.73835938 45 329 C44.42415568 331.38564077 43.77772405 333.66682784 43 336 C42.34 336.33 41.68 336.66 41 337 C42.94999129 336.80528889 42.94999129 336.80528889 45 336 C46.28436734 334.0162233 46.28436734 334.0162233 47 332 C48.65 332 50.3 332 52 332 C52.06058594 331.30132812 52.12117187 330.60265625 52.18359375 329.8828125 C52.26738281 328.97273438 52.35117188 328.06265625 52.4375 327.125 C52.55931641 325.76761719 52.55931641 325.76761719 52.68359375 324.3828125 C53 322 53 322 54 320 C54.66 320 55.32 320 56 320 C56 319.34 56 318.68 56 318 C75.54195804 313.44278449 75.54195804 313.44278449 84 318 C83.67 319.98 83.34 321.96 83 324 C84.32 324.33 85.64 324.66 87 325 C90.11367639 335.49012402 90.32878217 345.15018837 90 356 C88.35 356.33 86.7 356.66 85 357 C84.938125 357.928125 84.87625 358.85625 84.8125 359.8125 C84 363 84 363 81.875 364.75 C75.28712803 367.61429216 70.00788784 368.63035289 63 367 C60.08374315 365.57289559 58.28342634 364.28342634 56 362 C55.01 362.33 54.02 362.66 53 363 C50.26187393 362.54451823 47.6798824 361.74685247 45 361 C45 360.34 45 359.68 45 359 C45.66 359 46.32 359 47 359 C46.814375 358.443125 46.62875 357.88625 46.4375 357.3125 C45.92448835 354.600867 46.3359276 352.65628961 47 350 C40.5446573 346.77232865 30.03687859 349.06071219 23.046875 349.87890625 C22.37140625 349.91886719 21.6959375 349.95882813 21 350 C20 349 20 349 19.875 345.5 C20 342 20 342 21 341 C23.65463121 340.54540142 26.32189138 340.29756762 29 340 C27.21092278 336.24848856 27.21092278 336.24848856 23.8125 334.1875 C22.9153125 334.0946875 22.9153125 334.0946875 22 334 C19.74830377 338.56746512 19.57576021 342.82277227 19.375 347.8125 C19.33632812 348.60076172 19.29765625 349.38902344 19.2578125 350.20117188 C19.16411156 352.1337538 19.08099221 354.06684376 19 356 C20.6396875 355.9690625 20.6396875 355.9690625 22.3125 355.9375 C26 356 26 356 29 357 C29.02712066 358.43739513 29.04645067 359.87493863 29.0625 361.3125 C29.07410156 362.11300781 29.08570313 362.91351563 29.09765625 363.73828125 C29 366 29 366 28 369 C25.36 369 22.72 369 20 369 C20.00523682 369.74048584 20.01047363 370.48097168 20.01586914 371.24389648 C20.03682557 374.64175548 20.04971908 378.03960081 20.0625 381.4375 C20.07087891 382.60216797 20.07925781 383.76683594 20.08789062 384.96679688 C20.10224418 390.06230894 20.07875243 395.06596522 19.46484375 400.12890625 C18.83784842 403.94176648 18.83784842 403.94176648 19.5 407.5 C20.11875806 411.83130644 19.63418892 415.69727211 19 420 C19.33 419.67 19.66 419.34 20 419 C23 417 23 417 25.4375 417.1875 C28.27529269 417.27293965 28.27529269 417.27293965 30.3125 414.5 C30.869375 413.675 31.42625 412.85 32 412 C31.67 411.67 31.34 411.34 31 411 C30.54434605 406.10171999 31.0877381 402.99395918 34 399 C36.62848245 397.34894318 39.32550115 395.96224943 42.1015625 394.57421875 C44.88643458 393.06168041 47.08836066 391.41662247 49.5 389.375 C55.44043815 384.55640718 62.29796782 381.68943419 70 382 C71.32 382 72.64 382 74 382 C74.99 382.66 75.98 383.32 77 384 C77.34057617 386.52197266 77.34057617 386.52197266 77.29296875 389.6640625 C77.28330078 390.78554688 77.27363281 391.90703125 77.26367188 393.0625 C77.23853516 394.238125 77.21339844 395.41375 77.1875 396.625 C77.17396484 397.80835938 77.16042969 398.99171875 77.14648438 400.2109375 C77.11103916 403.14107539 77.06162769 406.07031459 77 409 C75.68 409 74.36 409 73 409 C72.67 409.66 72.34 410.32 72 411 C72.99 411.33 73.98 411.66 75 412 C75.05395478 413.62463842 75.09277195 415.24978541 75.125 416.875 C75.14820313 417.77992188 75.17140625 418.68484375 75.1953125 419.6171875 C75 422 75 422 73 424 C70.89597932 424.61816241 68.76561574 425.14877313 66.625 425.625 C65.48289062 425.88539063 64.34078125 426.14578125 63.1640625 426.4140625 C60 427 60 427 56 427 C56 423 56 419 56 415 C55.67 414.67 55.34 414.34 55 414 C55.02320313 414.91523438 55.04640625 415.83046875 55.0703125 416.7734375 C55.08835938 417.96195312 55.10640625 419.15046875 55.125 420.375 C55.14820313 421.55835938 55.17140625 422.74171875 55.1953125 423.9609375 C55 427 55 427 53 429 C50.86328125 429.52734375 50.86328125 429.52734375 48.3125 429.9375 C45.05416736 430.52353105 42.23892332 431.20074795 39.25 432.625 C35.87130143 434.05444939 33.62370908 434.26514944 30 434 C30 433.01 30 432.02 30 431 C29.360625 431.598125 28.72125 432.19625 28.0625 432.8125 C21.46507365 437.52494739 14.44955777 438.49171455 6.5 438.375 C5.70980469 438.38660156 4.91960937 438.39820313 4.10546875 438.41015625 C-1.57936292 438.38224382 -6.84051027 437.49685565 -12 435 C-12.33 434.34 -12.66 433.68 -13 433 C-13.99 433.99 -14.98 434.98 -16 436 C-16.91265625 435.72736328 -16.91265625 435.72736328 -17.84375 435.44921875 C-26.13002245 433.07300827 -34.52149894 431.4972031 -43 430 C-44.60156804 429.71487485 -46.20313043 429.42971797 -47.8046875 429.14453125 C-51.86865148 428.42308788 -55.93394302 427.70954707 -60 427 C-60.02687279 425.18757948 -60.04633715 423.37504767 -60.0625 421.5625 C-60.07410156 420.55316406 -60.08570313 419.54382813 -60.09765625 418.50390625 C-60 416 -60 416 -59 415 C-59.81984375 414.690625 -60.6396875 414.38125 -61.484375 414.0625 C-64 412 -64 412 -64.39648438 410.11328125 C-64.45688492 407.72641848 -64.38493265 405.38381012 -64.25 403 C-64.18868479 401.37514684 -64.13123422 399.75014207 -64.078125 398.125 C-64.02253418 397.04605469 -64.02253418 397.04605469 -63.96582031 395.9453125 C-63.90671613 393.78066344 -63.90671613 393.78066344 -65 391 C-64.5625 388.8125 -64.5625 388.8125 -64 387 C-62.02 387.33 -60.04 387.66 -58 388 C-57.01 386.02 -57.01 386.02 -56 384 C-55.01 384 -54.02 384 -53 384 C-53 384.66 -53 385.32 -53 386 C-51.741875 386.020625 -50.48375 386.04125 -49.1875 386.0625 C-43.7423267 386.65232254 -40.15540471 389.11552684 -35.70703125 392.1640625 C-33.25642767 393.82608802 -30.80327796 395.24457264 -28.1875 396.625 C-23.50809194 399.16596889 -19.77034354 402.22965646 -16 406 C-15.875 408.625 -15.875 408.625 -16 411 C-16.66 411 -17.32 411 -18 411 C-17.30609329 413.98713894 -17.30609329 413.98713894 -15.4375 415.25 C-13.1960116 417.97876849 -13.8076683 420.60213991 -14 424 C-13.67 422.02 -13.34 420.04 -13 418 C-6.125 418.875 -6.125 418.875 -5 420 C-4.98482902 394.82604043 -4.98482902 394.82604043 -8 370 C-9.918125 370.061875 -9.918125 370.061875 -11.875 370.125 C-14.0546875 370.1953125 -14.0546875 370.1953125 -16 370 C-18.8086289 367.1913711 -18.72711179 364.88865706 -19 361 C-18.34 360.01 -17.68 359.02 -17 358 C-13.375 357.3125 -13.375 357.3125 -10 357 C-9.34 354.69 -8.68 352.38 -8 350 C-8.33 349.67 -8.66 349.34 -9 349 C-9.23653523 346.47403741 -9.42173692 343.96892793 -9.5625 341.4375 C-9.60568359 340.72658203 -9.64886719 340.01566406 -9.69335938 339.28320312 C-9.79971777 337.52238088 -9.90038846 335.7612168 -10 334 C-11.65 334.66 -13.3 335.32 -15 336 C-15 336.99 -15 337.98 -15 339 C-15.99 339 -16.98 339 -18 339 C-18 339.99 -18 340.98 -18 342 C-15.36 342 -12.72 342 -10 342 C-10 344.97 -10 347.94 -10 351 C-14.18748519 351.02920143 -18.37494391 351.04686646 -22.5625 351.0625 C-23.74392578 351.07087891 -24.92535156 351.07925781 -26.14257812 351.08789062 C-31.86863072 351.10392999 -37.36394482 351.0510705 -43 350 C-43.66 351.98 -44.32 353.96 -45 356 C-44.34 356 -43.68 356 -43 356 C-42.67 354.35 -42.34 352.7 -42 351 C-40.35 351 -38.7 351 -37 351 C-35.24789662 355.48976491 -34.62923865 359.18010242 -35 364 C-35.66 364.66 -36.32 365.32 -37 366 C-40.5625 365.75 -40.5625 365.75 -44 365 C-44.33 364.34 -44.66 363.68 -45 363 C-45.78375 363.969375 -46.5675 364.93875 -47.375 365.9375 C-48.91288705 367.83962346 -49.79259913 368.89629957 -52 370 C-54.3934153 370.12444602 -56.79088078 370.17567069 -59.1875 370.1875 C-60.48042969 370.20167969 -61.77335937 370.21585937 -63.10546875 370.23046875 C-67.1308417 369.99225711 -70.19554003 369.24841553 -74 368 C-74 365.36 -74 362.72 -74 360 C-75.65 359.34 -77.3 358.68 -79 358 C-79.05869332 354.50007197 -79.09382709 351.0002728 -79.125 347.5 C-79.14175781 346.51773437 -79.15851563 345.53546875 -79.17578125 344.5234375 C-79.2147676 338.6754846 -78.9558819 333.54382418 -77 328 C-76.01 327.67 -75.02 327.34 -74 327 C-74.185625 326.38125 -74.37125 325.7625 -74.5625 325.125 C-75 323 -75 323 -74 321 C-65.30270882 318.74566213 -55.79448157 317.93071022 -47 320 C-44.00607921 323.05040986 -43.56196285 325.55902409 -43.3125 329.75 C-43.24675781 330.73484375 -43.18101562 331.7196875 -43.11328125 332.734375 C-43.07589844 333.48203125 -43.03851563 334.2296875 -43 335 C-40.69 334.67 -38.38 334.34 -36 334 C-35.67 335.32 -35.34 336.64 -35 338 C-34.34 338 -33.68 338 -33 338 C-33.165 336.783125 -33.33 335.56625 -33.5 334.3125 C-33.51171875 332.08984375 -33.51171875 332.08984375 -33 330 C-31.16493218 328.36138713 -29.28627916 327.3612852 -27.109375 326.22265625 C-23.39996651 324.07257318 -20.91416495 320.8283299 -19 317 C-18.34 317 -17.68 317 -17 317 C-16.67 315.68 -16.34 314.36 -16 313 C-14.68 313.33 -13.36 313.66 -12 314 C-12 310.7 -12 307.4 -12 304 C-12.78375 304.185625 -13.5675 304.37125 -14.375 304.5625 C-17 305 -17 305 -19 304 C-19 303.01 -19 302.02 -19 301 C-19.80050781 300.69255859 -19.80050781 300.69255859 -20.6171875 300.37890625 C-23.99937434 298.42167354 -26.43037488 295.7403035 -29.125 292.9375 C-32.69553366 288.9955106 -32.69553366 288.9955106 -37 286 C-37 285.34 -37 284.68 -37 284 C-37.55429688 283.76023437 -38.10859375 283.52046875 -38.6796875 283.2734375 C-41.52556558 281.71155828 -43.71106016 279.79394296 -46.125 277.625 C-46.99382812 276.85414063 -47.86265625 276.08328125 -48.7578125 275.2890625 C-50.80683165 273.19720672 -51.78904584 271.60556013 -53 269 C-53.680625 268.67 -54.36125 268.34 -55.0625 268 C-55.701875 267.67 -56.34125 267.34 -57 267 C-57.3721042 265.67696283 -57.70630173 264.34262065 -58 263 C-58.99 262.34 -59.98 261.68 -61 261 C-61.4765625 258.84765625 -61.4765625 258.84765625 -61.625 256.0625 C-61.68816406 255.0003125 -61.75132812 253.938125 -61.81640625 252.84375 C-61.87699219 251.5753125 -61.93757813 250.306875 -62 249 C-62.09116082 247.38534348 -62.18368934 245.7707638 -62.27734375 244.15625 C-62.54414245 239.4384351 -62.79755406 234.72103939 -63 230 C-63.05027344 229.02933594 -63.10054687 228.05867187 -63.15234375 227.05859375 C-63 225 -63 225 -61 223 C-61.32742187 222.35248779 -61.65484375 221.70497559 -61.9921875 221.0378418 C-63.29179563 217.12044259 -63.21028953 213.4680639 -63.125 209.39453125 C-63.11742676 208.55645432 -63.10985352 207.71837738 -63.10205078 206.85490417 C-63.06970841 203.29404574 -63.01431459 199.73366069 -62.95898438 196.1730957 C-62.8145135 185.98694849 -62.92179611 176.05794709 -64.37646484 165.95649719 C-65.00137453 161.40314678 -64.80939673 157.51571207 -64 153 C-64 152.34 -64 151.68 -64 151 C-64 149.68 -64 148.36 -64 147 C-63.34 146.67 -62.68 146.34 -62 146 C-62.66 145.67 -63.32 145.34 -64 145 C-65.56031138 138.11830832 -64.98904148 130.85655246 -64.5625 123.875 C-64.51029297 122.91851562 -64.45808594 121.96203125 -64.40429688 120.9765625 C-64.27636706 118.65056581 -64.14151455 116.32520281 -64 114 C-63.01 113.505 -63.01 113.505 -62 113 C-62.66 112.34 -63.32 111.68 -64 111 C-64.21118164 109.1081543 -64.21118164 109.1081543 -64.16015625 106.82421875 C-64.14919922 105.99599609 -64.13824219 105.16777344 -64.12695312 104.31445312 C-64.10568359 103.44755859 -64.08441406 102.58066406 -64.0625 101.6875 C-63.84399686 95.37519933 -63.84399686 95.37519933 -64.62109375 89.14453125 C-65.09664037 86.4530354 -64.42963809 85.27060168 -63 83 C-63.79664063 82.96261719 -64.59328125 82.92523438 -65.4140625 82.88671875 C-76.44264819 82.20246343 -76.44264819 82.20246343 -81 79 C-82.19558376 75.41324873 -82.23022825 72.07050499 -82.31640625 68.33203125 C-82.33718735 67.57838791 -82.35796844 66.82474457 -82.37937927 66.04826355 C-82.4446893 63.63643401 -82.50354179 61.22449226 -82.5625 58.8125 C-82.60572498 57.20767161 -82.64934051 55.60285369 -82.69335938 53.99804688 C-82.7347251 52.44271761 -82.77575132 50.88737926 -82.81640625 49.33203125 C-82.84451134 48.25971001 -82.84451134 48.25971001 -82.8731842 47.16572571 C-82.98806532 42.44244133 -83.0155821 37.72469036 -83 33 C-76.52638408 29.15843004 -71.6505893 28.40059953 -64.1875 28.5625 C-62.77694336 28.55186523 -62.77694336 28.55186523 -61.33789062 28.54101562 C-54.42988545 28.60520724 -54.42988545 28.60520724 -52.3371582 30.52709961 C-51.895896 31.01315674 -51.45463379 31.49921387 -51 32 C-50.34 32 -49.68 32 -49 32 C-49 30.68 -49 29.36 -49 28 C-47.02 28 -45.04 28 -43 28 C-42.34 26.02 -41.68 24.04 -41 22 C-41.33 21.67 -41.66 21.34 -42 21 C-42.07313567 18.46950598 -42.09247527 15.96695163 -42.0625 13.4375 C-42.05798828 12.72658203 -42.05347656 12.01566406 -42.04882812 11.28320312 C-42.03700864 9.52209987 -42.01907263 7.76103964 -42 6 C-40.68 5.34 -39.36 4.68 -38 4 C-35.70620251 7.44069624 -35 8.72290301 -35 13 C-33.85144531 12.9278125 -32.70289063 12.855625 -31.51953125 12.78125 C-22.32939392 12.22484302 -13.21003476 11.85355068 -4 12 C-4.99 11.34 -5.98 10.68 -7 10 C-7.29296875 7.6171875 -7.29296875 7.6171875 -7.1875 4.875 C-7.14689453 3.50988281 -7.14689453 3.50988281 -7.10546875 2.1171875 C-7.07066406 1.41851562 -7.03585938 0.71984375 -7 0 C-4.3333581 -1.33332095 -2.83319697 -0.67102033 0 0 Z M18 20 C18 20.33 18 20.66 18 21 C22.62 21 27.24 21 32 21 C32 20.67 32 20.34 32 20 C27.38 20 22.76 20 18 20 Z M-18 21 C-14 22 -14 22 -14 22 Z M41 34 C39.79727181 36.40545638 39.89928528 37.94996953 39.9375 40.625 C39.94652344 41.44226563 39.95554687 42.25953125 39.96484375 43.1015625 C39.97644531 43.72804688 39.98804688 44.35453125 40 45 C39.01 45 38.02 45 37 45 C36.67 46.65 36.34 48.3 36 50 C37.65 50.33 39.3 50.66 41 51 C41.33 45.39 41.66 39.78 42 34 C41.67 34 41.34 34 41 34 Z M-47 38 C-47 40.64 -47 43.28 -47 46 C-46.67 46 -46.34 46 -46 46 C-46 43.36 -46 40.72 -46 38 C-46.33 38 -46.66 38 -47 38 Z M-41 38 C-40 40 -40 40 -40 40 Z M0 40 C0 40.66 0 41.32 0 42 C0.66 42 1.32 42 2 42 C2.125 48.75 2.125 48.75 1 51 C6.28 51 11.56 51 17 51 C17 50.67 17 50.34 17 50 C12.71 50 8.42 50 4 50 C4 47.69 4 45.38 4 43 C8.29 43 12.58 43 17 43 C17 42.67 17 42.34 17 42 C15.10507994 41.66151348 13.20901534 41.32943089 11.3125 41 C10.25675781 40.814375 9.20101562 40.62875 8.11328125 40.4375 C5.35095938 40.04931926 2.78257957 39.91740024 0 40 Z M-9.625 41 C-10.44226563 41.185625 -11.25953125 41.37125 -12.1015625 41.5625 C-12.72804688 41.706875 -13.35453125 41.85125 -14 42 C-14 42.33 -14 42.66 -14 43 C-12.35 43 -10.7 43 -9 43 C-9 44.65 -9 46.3 -9 48 C-8.67 48 -8.34 48 -8 48 C-7.67 46.35 -7.34 44.7 -7 43 C-5.35 42.67 -3.7 42.34 -2 42 C-2.33 41.34 -2.66 40.68 -3 40 C-5.33818679 40 -7.34566188 40.47900843 -9.625 41 Z M-36 43 C-36 43.66 -36 44.32 -36 45 C-32.04 45 -28.08 45 -24 45 C-24 44.67 -24 44.34 -24 44 C-27.96 43.67 -31.92 43.34 -36 43 Z M-46 46 C-45.67 46.99 -45.34 47.98 -45 49 C-44.34 49 -43.68 49 -43 49 C-43 48.34 -43 47.68 -43 47 C-43.99 46.67 -44.98 46.34 -46 46 Z M-46 52 C-46 57.61 -46 63.22 -46 69 C-45.34 68.34 -44.68 67.68 -44 67 C-41.375 67.375 -41.375 67.375 -39 68 C-39 66.68 -39 65.36 -39 64 C-40.65 63.67 -42.3 63.34 -44 63 C-44.33 59.7 -44.66 56.4 -45 53 C-44.34 52.67 -43.68 52.34 -43 52 C-43.99 52 -44.98 52 -46 52 Z M27 52 C27.33 52.99 27.66 53.98 28 55 C28.33 54.01 28.66 53.02 29 52 C28.34 52 27.68 52 27 52 Z M28 57 C25.67488528 58.26352052 25.67488528 58.26352052 24 60 C24.66 62.31 25.32 64.62 26 67 C26.763125 66.360625 27.52625 65.72125 28.3125 65.0625 C31 63 31 63 34 62 C34 60.35 34 58.7 34 57 C33.67 57.66 33.34 58.32 33 59 C32.2575 58.608125 31.515 58.21625 30.75 57.8125 C29.8425 57.544375 28.935 57.27625 28 57 Z M-11 61 C-9.35 61 -7.7 61 -6 61 C-6 63.64 -6 66.28 -6 69 C-5.67 69 -5.34 69 -5 69 C-5 66.36 -5 63.72 -5 61 C-3.68 61 -2.36 61 -1 61 C-1 60.34 -1 59.68 -1 59 C-4.94727588 58.82057837 -7.5980513 58.90649311 -11 61 Z M-38 60 C-38 60.99 -38 61.98 -38 63 C-37.34 63 -36.68 63 -36 63 C-36.33 62.01 -36.66 61.02 -37 60 C-37.33 60 -37.66 60 -38 60 Z M-34 61 C-33.67 62.65 -33.34 64.3 -33 66 C-32.01 66 -31.02 66 -30 66 C-30 64.35 -30 62.7 -30 61 C-31.32 61 -32.64 61 -34 61 Z M-29 70 C-29 71.32 -29 72.64 -29 74 C-28.01 73.67 -27.02 73.34 -26 73 C-26.99 72.01 -27.98 71.02 -29 70 Z M0 70 C0 74.62 0 79.24 0 84 C-0.66 84 -1.32 84 -2 84 C-2 85.32 -2 86.64 -2 88 C-2.66 88.33 -3.32 88.66 -4 89 C-3.88186981 93.52085371 -3.75763024 98.04148214 -3.62768555 102.56201172 C-3.58433074 104.10037653 -3.54265605 105.63878963 -3.50268555 107.17724609 C-3.44499602 109.3865414 -3.38129821 111.59559348 -3.31640625 113.8046875 C-3.29133751 114.83914505 -3.29133751 114.83914505 -3.26576233 115.89450073 C-3.19193005 119.57114264 -3.19193005 119.57114264 -2 123 C-2.66 123 -3.32 123 -4 123 C-3.67 124.32 -3.34 125.64 -3 127 C-1.02 126.505 -1.02 126.505 1 126 C1.04898438 126.78246094 1.09796875 127.56492188 1.1484375 128.37109375 C1.22320312 129.38300781 1.29796875 130.39492187 1.375 131.4375 C1.44460937 132.44683594 1.51421875 133.45617187 1.5859375 134.49609375 C1.72257812 135.32238281 1.85921875 136.14867187 2 137 C2.66 137.33 3.32 137.66 4 138 C4.99 137.505 4.99 137.505 6 137 C5.56810558 133.83277427 5.12126745 130.67823918 4.55859375 127.53125 C3.23762715 120.12551599 2.39464323 112.72155792 1.69750977 105.23535156 C1.6726161 101.2934072 1.6726161 101.2934072 0 98 C-0.23363881 96.15108054 -0.41303635 94.29511969 -0.5625 92.4375 C-0.64628906 91.42558594 -0.73007813 90.41367188 -0.81640625 89.37109375 C-0.87699219 88.58863281 -0.93757813 87.80617188 -1 87 C-0.34 87 0.32 87 1 87 C1.33 81.39 1.66 75.78 2 70 C1.34 70 0.68 70 0 70 Z M-46 71 C-46.26554687 71.60328125 -46.53109375 72.2065625 -46.8046875 72.828125 C-47.15789062 73.62734375 -47.51109375 74.4265625 -47.875 75.25 C-48.22304687 76.03890625 -48.57109375 76.8278125 -48.9296875 77.640625 C-49.90413905 79.78868608 -50.92986429 81.89829202 -52 84 C-50.35 83.67 -48.7 83.34 -47 83 C-46.67 80.69 -46.34 78.38 -46 76 C-44.02 75.67 -42.04 75.34 -40 75 C-40 74.67 -40 74.34 -40 74 C-41.65 74 -43.3 74 -45 74 C-45.33 73.01 -45.66 72.02 -46 71 Z M-36 71 C-36 72.65 -36 74.3 -36 76 C-34.824375 76.4640625 -34.824375 76.4640625 -33.625 76.9375 C-31 78 -31 78 -29 79 C-29 77.35 -29 75.7 -29 74 C-29.78375 73.690625 -30.5675 73.38125 -31.375 73.0625 C-34 72 -34 72 -36 71 Z M41 70 C41 70.66 41 71.32 41 72 C39.35 72 37.7 72 36 72 C36 72.33 36 72.66 36 73 C38.97 73.495 38.97 73.495 42 74 C42.33 76.31 42.66 78.62 43 81 C44.65 81.33 46.3 81.66 48 82 C48.33 81.01 48.66 80.02 49 79 C48.38125 78.443125 47.7625 77.88625 47.125 77.3125 C44.93893621 74.93354822 44.01214301 73.03642904 43 70 C42.34 70 41.68 70 41 70 Z M-36 83 C-33.05270463 84.15811388 -33.05270463 84.15811388 -30 84 C-29.01 85.485 -29.01 85.485 -28 87 C-28 84.69 -28 82.38 -28 80 C-30.60939857 80 -33.6401989 81.97026861 -36 83 Z M-52 88 C-53.8198497 93.45954909 -53.37745568 99.49017726 -52 105 C-51.67 105 -51.34 105 -51 105 C-51 99.39 -51 93.78 -51 88 C-51.33 88 -51.66 88 -52 88 Z M25 88 C25 89.65 25 91.3 25 93 C25.33 93 25.66 93 26 93 C26 91.35 26 89.7 26 88 C25.67 88 25.34 88 25 88 Z M-29 90 C-28 94 -28 94 -28 94 Z M26 95 C26 96.98 26 98.96 26 101 C26.33 101 26.66 101 27 101 C27 99.02 27 97.04 27 95 C26.67 95 26.34 95 26 95 Z M27 103 C28 105 28 105 28 105 Z M-30 106 C-31.40454548 112.11980533 -32.23268915 117.71739294 -32 124 C-31.01 123.67 -30.02 123.34 -29 123 C-28.00749455 117.29309366 -27.89522488 111.78591511 -28 106 C-28.66 106 -29.32 106 -30 106 Z M49 106 C49 111.61 49 117.22 49 123 C49.66 123 50.32 123 51 123 C51 122.01 51 121.02 51 120 C51.66 120 52.32 120 53 120 C53 119.34 53 118.68 53 118 C52.01 118 51.02 118 50 118 C50 114.7 50 111.4 50 108 C50.99 107.67 51.98 107.34 53 107 C51.68 106.67 50.36 106.34 49 106 Z M-59 111 C-55 112 -55 112 -55 112 Z M-52 123 C-51 125 -51 125 -51 125 Z M-32 125 C-33.80230168 128.82989106 -34.19622241 131.78121808 -34 136 C-31.60236815 133.60236815 -31.65719414 132.66726502 -31.375 129.375 C-31.30023438 128.55773437 -31.22546875 127.74046875 -31.1484375 126.8984375 C-31.09945312 126.27195312 -31.05046875 125.64546875 -31 125 C-31.33 125 -31.66 125 -32 125 Z M31 126 C32 128 32 128 32 128 Z M-5 127 C-4 131 -4 131 -4 131 Z M-6 131 C-5 134 -5 134 -5 134 Z M-53 132 C-52 135 -52 135 -52 135 Z M32 132 C33 134 33 134 33 134 Z M-7 134 C-6 137 -6 137 -6 137 Z M33 136 C34 138 34 138 34 138 Z M-8 137 C-7 140 -7 140 -7 140 Z M-36 141 C-35 143 -35 143 -35 143 Z M1 141 C1.33 146.94 1.66 152.88 2 159 C2.33 159 2.66 159 3 159 C3.054138 156.75026553 3.09285491 154.50015617 3.125 152.25 C3.14820313 150.99703125 3.17140625 149.7440625 3.1953125 148.453125 C3.21570124 144.77141764 3.21570124 144.77141764 1 141 Z M8 141 C8.67415387 146.2584002 10.24265549 151.02638346 12 156 C12.33 156 12.66 156 13 156 C12.50341703 150.33895411 11.45489316 146.12325529 9 141 C8.67 141 8.34 141 8 141 Z M52 141 C53 143 53 143 53 143 Z M-55 142 C-55.66 142.66 -56.32 143.32 -57 144 C-56.01 144 -55.02 144 -54 144 C-54.33 143.34 -54.66 142.68 -55 142 Z M37 145 C38 147 38 147 38 147 Z M38 147 C38.33 147.99 38.66 148.98 39 150 C39 149.01 39 148.02 39 147 C38.67 147 38.34 147 38 147 Z M-55 149 C-56.98 149.99 -58.96 150.98 -61 152 C-59.15274948 152.69159401 -59.15274948 152.69159401 -57 153 C-56.01 152.34 -55.02 151.68 -54 151 C-54.33 150.34 -54.66 149.68 -55 149 Z M40 151 C40 153.64 40 156.28 40 159 C41.65 159 43.3 159 45 159 C43.68 156.36 42.36 153.72 41 151 C40.67 151 40.34 151 40 151 Z M13 156 C14 158 14 158 14 158 Z M-44 160 C-43.67 160.66 -43.34 161.32 -43 162 C-42.01 161.34 -41.02 160.68 -40 160 C-41.32 160 -42.64 160 -44 160 Z M-14 161 C-13 165 -13 165 -13 165 Z M-46 165 C-45 168 -45 168 -45 168 Z M34 165 C35 167 35 167 35 167 Z M33 167 C32.67 168.65 32.34 170.3 32 172 C32.66 171.01 33.32 170.02 34 169 C33.67 168.34 33.34 167.68 33 167 Z M-47 168 C-46 170 -46 170 -46 170 Z M-15 168 C-15.66 170.64 -16.32 173.28 -17 176 C-15.35 175.67 -13.7 175.34 -12 175 C-12.66 172.69 -13.32 170.38 -14 168 C-14.33 168 -14.66 168 -15 168 Z M-48 170 C-47 173 -47 173 -47 173 Z M31 172 C30.67 173.32 30.34 174.64 30 176 C30.66 175.67 31.32 175.34 32 175 C31.67 174.01 31.34 173.02 31 172 Z M-49 173 C-48 175 -48 175 -48 175 Z M-3 174 C-2.34 174.66 -1.68 175.32 -1 176 C-1 175.34 -1 174.68 -1 174 C-1.66 174 -2.32 174 -3 174 Z M15 177 C15 177.66 15 178.32 15 179 C15.66 179 16.32 179 17 179 C17 178.34 17 177.68 17 177 C16.34 177 15.68 177 15 177 Z M0 178 C0 178.99 0 179.98 0 181 C1.32 181 2.64 181 4 181 C4.33 185.62 4.66 190.24 5 195 C5.33 195 5.66 195 6 195 C6 190.38 6 185.76 6 181 C7.65 181 9.3 181 11 181 C11 180.67 11 180.34 11 180 C8.03 180 5.06 180 2 180 C2 179.34 2 178.68 2 178 C1.34 178 0.68 178 0 178 Z M52 179 C53 181 53 181 53 181 Z M11 181 C11.33 184.96 11.66 188.92 12 193 C12.33 193 12.66 193 13 193 C13.33 189.04 13.66 185.08 14 181 C13.01 181 12.02 181 11 181 Z M29 181 C28.67 181.99 28.34 182.98 28 184 C28.66 184 29.32 184 30 184 C29.67 183.01 29.34 182.02 29 181 Z M-20 183 C-20.6496875 184.4540625 -20.6496875 184.4540625 -21.3125 185.9375 C-23 189 -23 189 -26 190 C-25.67 191.65 -25.34 193.3 -25 195 C-24.34 195 -23.68 195 -23 195 C-22.30062798 193.5682384 -21.61587282 192.12932968 -20.9375 190.6875 C-20.55464844 189.88699219 -20.17179687 189.08648437 -19.77734375 188.26171875 C-18.70264486 185.87971247 -18.70264486 185.87971247 -20 183 Z M25 187 C25.33 188.32 25.66 189.64 26 191 C26.66 191 27.32 191 28 191 C28.33 189.68 28.66 188.36 29 187 C27.68 187 26.36 187 25 187 Z M-5 196 C-1 197 -1 197 -1 197 Z M27 196 C27 201.28 27 206.56 27 212 C27.33 212 27.66 212 28 212 C28 206.72 28 201.44 28 196 C27.67 196 27.34 196 27 196 Z M57 205 C57 207.64 57 210.28 57 213 C57.33 213 57.66 213 58 213 C58 210.36 58 207.72 58 205 C57.67 205 57.34 205 57 205 Z M-8 208 C-8.66 209.65 -9.32 211.3 -10 213 C-9.34 213 -8.68 213 -8 213 C-7.34 211.35 -6.68 209.7 -6 208 C-6.66 208 -7.32 208 -8 208 Z M-25 214 C-25 219.28 -25 224.56 -25 230 C-26.98 230 -28.96 230 -31 230 C-31 230.33 -31 230.66 -31 231 C-28.69 231 -26.38 231 -24 231 C-23.67 229.02 -23.34 227.04 -23 225 C-21.68 224.67 -20.36 224.34 -19 224 C-19.33 223.34 -19.66 222.68 -20 222 C-20.99 222.33 -21.98 222.66 -23 223 C-23.33 220.03 -23.66 217.06 -24 214 C-24.33 214 -24.66 214 -25 214 Z M13 214 C14 217 14 217 14 217 Z M57 215 C58 219 58 219 58 219 Z M14 217 C14 221.62 14 226.24 14 231 C14.33 231 14.66 231 15 231 C15.144375 229.72125 15.28875 228.4425 15.4375 227.125 C15.70642746 224.74307106 15.92226346 223.15547309 17 221 C16.34 221 15.68 221 15 221 C14.67 219.68 14.34 218.36 14 217 Z M36 227 C36.33 227.66 36.66 228.32 37 229 C38.65 228.67 40.3 228.34 42 228 C42 227.67 42 227.34 42 227 C40.02 227 38.04 227 36 227 Z M42 228 C43 231 43 231 43 231 Z M-36 229 C-32 230 -32 230 -32 230 Z M-39 232 C-38 234 -38 234 -38 234 Z M-10 232 C-10 237.61 -10 243.22 -10 249 C-9.67 249 -9.34 249 -9 249 C-8.10683731 243.06390334 -8.02959578 237.93024803 -9 232 C-9.33 232 -9.66 232 -10 232 Z M28 232 C28.33 233.65 28.66 235.3 29 237 C30.65 236.67 32.3 236.34 34 236 C34 235.67 34 235.34 34 235 C32.35 235 30.7 235 29 235 C28.67 234.01 28.34 233.02 28 232 Z M60 235 C64 236 64 236 64 236 Z M52.015625 237.27734375 C50.85933594 237.67663086 50.85933594 237.67663086 49.6796875 238.08398438 C48.07502534 238.64768001 46.47084797 239.21275781 44.8671875 239.77929688 C40.22522974 241.37930723 35.89090525 242.37280623 31 243 C28.83789654 243.69041874 28.83789654 243.69041874 27.0625 244.5625 C26.051875 245.036875 25.04125 245.51125 24 246 C24 246.99 24 247.98 24 249 C27.4331097 251.2887398 28.14469349 251.14429689 32.0625 250.625 C32.94035156 250.51414062 33.81820312 250.40328125 34.72265625 250.2890625 C35.84994141 250.14597656 35.84994141 250.14597656 37 250 C37.66 250 38.32 250 39 250 C39.33 251.32 39.66 252.64 40 254 C39.34 254.33 38.68 254.66 38 255 C38.99 255 39.98 255 41 255 C41 258.96 41 262.92 41 267 C45.03758966 267.4121932 45.03758966 267.4121932 49 267 C51.76020432 264.23776511 51.76020432 264.23776511 54 261 C54.86625 260.67 55.7325 260.34 56.625 260 C59.20787078 258.25924886 59.20787078 258.25924886 59.40356445 255.70239258 C59.4933967 252.7249843 59.43424612 249.7887244 59.3125 246.8125 C59.27866211 245.25885742 59.27866211 245.25885742 59.24414062 243.67382812 C59.18516846 241.11443596 59.10292567 238.55794049 59 236 C56.16185383 236 54.63635548 236.35193253 52.015625 237.27734375 Z M-53 239 C-53.0582253 242.08325358 -53.09367134 245.16636505 -53.125 248.25 C-53.14175781 249.12269531 -53.15851563 249.99539063 -53.17578125 250.89453125 C-53.18222656 251.73886719 -53.18867188 252.58320313 -53.1953125 253.453125 C-53.20578613 254.22817383 -53.21625977 255.00322266 -53.22705078 255.80175781 C-52.78978751 260.0352186 -51.24836581 261.78725508 -48.03125 264.54296875 C-46.86020596 265.4324864 -45.68289318 266.31380124 -44.5 267.1875 C-43.90574219 267.63802734 -43.31148437 268.08855469 -42.69921875 268.55273438 C-39.48246471 270.98477877 -39.48246471 270.98477877 -36 273 C-35.83179449 271.06263299 -35.66548905 269.12510094 -35.5 267.1875 C-35.36078125 265.56908203 -35.36078125 265.56908203 -35.21875 263.91796875 C-34.96262162 260.98909189 -34.96262162 260.98909189 -35 258 C-34.01 257.34 -33.02 256.68 -32 256 C-32.66 256 -33.32 256 -34 256 C-34 254.35 -34 252.7 -34 251 C-33.16855469 251.2165625 -32.33710938 251.433125 -31.48046875 251.65625 C-30.39378906 251.9346875 -29.30710937 252.213125 -28.1875 252.5 C-27.10855469 252.7784375 -26.02960938 253.056875 -24.91796875 253.34375 C-22.01066025 254.10970948 -22.01066025 254.10970948 -19 254 C-19.26853229 250.77761257 -19.77118838 249.2583357 -21.9375 246.8125 C-25.56713249 244.66435016 -28.76020567 244.04831064 -32.890625 243.39453125 C-35 243 -35 243 -36 242 C-38.85227019 241.43655256 -41.69631608 240.91865055 -44.5625 240.4375 C-45.36880859 240.29892578 -46.17511719 240.16035156 -47.00585938 240.01757812 C-49.00329811 239.67482237 -51.00157472 239.33695612 -53 239 Z M-2 239 C-2.99 239.66 -3.98 240.32 -5 241 C-3.68 241 -2.36 241 -1 241 C-1.33 240.34 -1.66 239.68 -2 239 Z M0 253 C0 253.33 0 253.66 0 254 C3.63 254 7.26 254 11 254 C11 253.67 11 253.34 11 253 C7.37 253 3.74 253 0 253 Z M14 253 C13.34 253.66 12.68 254.32 12 255 C12.99 255.99 13.98 256.98 15 258 C15.66 257.34 16.32 256.68 17 256 C16.34 256 15.68 256 15 256 C14.67 255.01 14.34 254.02 14 253 Z M-9 255 C-8.67 255.99 -8.34 256.98 -8 258 C-7.67 257.01 -7.34 256.02 -7 255 C-7.66 255 -8.32 255 -9 255 Z M-26 259 C-25.67 261.64 -25.34 264.28 -25 267 C-24.67 266.01 -24.34 265.02 -24 264 C-22.35 264.33 -20.7 264.66 -19 265 C-19.33 263.35 -19.66 261.7 -20 260 C-22.97 259.505 -22.97 259.505 -26 259 Z M13 259 C12.319375 260.1446875 12.319375 260.1446875 11.625 261.3125 C10.23282263 263.61494719 8.97425729 265.21376721 7 267 C10.93075644 266.42547254 10.93075644 266.42547254 14 264 C14.16687448 261.41645782 14.16687448 261.41645782 14 259 C13.67 259 13.34 259 13 259 Z M24 267 C25 271 25 271 25 271 Z M31 268 C32 270 32 270 32 270 Z M-18 272 C-17 276 -17 276 -17 276 Z M23 275 C24 277 24 277 24 277 Z M32 275 C32.33 276.32 32.66 277.64 33 279 C33.66 278.01 34.32 277.02 35 276 C34.01 275.67 33.02 275.34 32 275 Z M-17 276 C-16 279 -16 279 -16 279 Z M-16 280 C-15 284 -15 284 -15 284 Z M22 282 C22 282.66 22 283.32 22 284 C22.66 283.67 23.32 283.34 24 283 C23.34 282.67 22.68 282.34 22 282 Z M21 291 C21 292.98 21 294.96 21 297 C21.33 297 21.66 297 22 297 C22 295.02 22 293.04 22 291 C21.67 291 21.34 291 21 291 Z M-12 317 C-12.28875 317.78375 -12.5775 318.5675 -12.875 319.375 C-14 322 -14 322 -16 324 C-16 324.99 -16 325.98 -16 327 C-14.35 327 -12.7 327 -11 327 C-11 323.7 -11 320.4 -11 317 C-11.33 317 -11.66 317 -12 317 Z M20 317 C20 317.99 20 318.98 20 320 C20.66 320 21.32 320 22 320 C21.67 321.98 21.34 323.96 21 326 C23.97 326.33 26.94 326.66 30 327 C25.49982522 321.46990667 25.49982522 321.46990667 20 317 Z M81 326 C81 328.97 81 331.94 81 335 C81.33 335 81.66 335 82 335 C82 332.03 82 329.06 82 326 C81.67 326 81.34 326 81 326 Z M54 339 C53.94616152 341.45862401 53.90640962 343.9160755 53.875 346.375 C53.85824219 347.07367188 53.84148437 347.77234375 53.82421875 348.4921875 C53.80655733 350.32897486 53.89696739 352.16601963 54 354 C54.66 354.66 55.32 355.32 56 356 C56.02721176 354.10424749 56.04649136 352.20838021 56.0625 350.3125 C56.07410156 349.25675781 56.08570313 348.20101563 56.09765625 347.11328125 C56.00865425 344.27589738 55.64939838 341.7561081 55 339 C54.67 339 54.34 339 54 339 Z M-73 350 C-73 351.65 -73 353.3 -73 355 C-72.67 355 -72.34 355 -72 355 C-72 353.35 -72 351.7 -72 350 C-72.33 350 -72.66 350 -73 350 Z M10 365 C10 365.33 10 365.66 10 366 C12.31 366.33 14.62 366.66 17 367 C17 366.34 17 365.68 17 365 C14.69 365 12.38 365 10 365 Z M-8 366 C-7.34 366.66 -6.68 367.32 -6 368 C-4.68 367.34 -3.36 366.68 -2 366 C-3.98 366 -5.96 366 -8 366 Z M0 366 C0 366.33 0 366.66 0 367 C2.64 367 5.28 367 8 367 C8 366.67 8 366.34 8 366 C5.36 366 2.72 366 0 366 Z M69 386 C66.62984755 388.65484449 66.62984755 388.65484449 66 392 C66.66 392 67.32 392 68 392 C68.66 390.02 69.32 388.04 70 386 C69.67 386 69.34 386 69 386 Z M66 397 C67 399 67 399 67 399 Z M66 400 C67 402 67 402 67 402 Z M48 402 C49.32 402 50.64 402 52 402 C52.33 402.66 52.66 403.32 53 404 C53 402.68 53 401.36 53 400 C50.67642489 399.81509993 50.67642489 399.81509993 48 402 Z M-41 411 C-40.938125 411.94875 -40.87625 412.8975 -40.8125 413.875 C-40.874375 414.90625 -40.93625 415.9375 -41 417 C-41.99 417.66 -42.98 418.32 -44 419 C-42.515 419.99 -42.515 419.99 -41 421 C-40.59156077 423.71203652 -40.86663133 426.2437142 -41 429 C-40.34 429 -39.68 429 -39 429 C-39 423.06 -39 417.12 -39 411 C-39.66 411 -40.32 411 -41 411 Z M63 412 C67 413 67 413 67 413 Z M28 419 C28 421.97 28 424.94 28 428 C28.99 428.495 28.99 428.495 30 429 C30 425.7 30 422.4 30 419 C29.34 419 28.68 419 28 419 Z M-6 421 C-5 425 -5 425 -5 425 Z " fill="#0D0D0D" transform="translate(196,64)"/>
<path d="M0 0 C0.33 0 0.66 0 1 0 C1.38187078 9.73770492 1.38187078 9.73770492 -1 14 C-1.98020375 15.0194119 -2.97803008 16.02246356 -4 17 C-4.495 18.485 -4.495 18.485 -5 20 C-3.35 20 -1.7 20 0 20 C0.33 18.68 0.66 17.36 1 16 C1 19.63 1 23.26 1 27 C-0.65 27.66 -2.3 28.32 -4 29 C-4 29.99 -4 30.98 -4 32 C-4.99 32 -5.98 32 -7 32 C-7 32.99 -7 33.98 -7 35 C-4.36 35 -1.72 35 1 35 C1 37.97 1 40.94 1 44 C-3.18748519 44.02920143 -7.37494391 44.04686646 -11.5625 44.0625 C-12.74392578 44.07087891 -13.92535156 44.07925781 -15.14257812 44.08789062 C-20.86863072 44.10392999 -26.36394482 44.0510705 -32 43 C-32.66 44.98 -33.32 46.96 -34 49 C-33.34 49 -32.68 49 -32 49 C-31.67 47.35 -31.34 45.7 -31 44 C-29.35 44 -27.7 44 -26 44 C-24.24789662 48.48976491 -23.62923865 52.18010242 -24 57 C-24.66 57.66 -25.32 58.32 -26 59 C-29.5625 58.75 -29.5625 58.75 -33 58 C-33.33 57.34 -33.66 56.68 -34 56 C-34.78375 56.969375 -35.5675 57.93875 -36.375 58.9375 C-37.91288705 60.83962346 -38.79259913 61.89629957 -41 63 C-43.3934153 63.12444602 -45.79088078 63.17567069 -48.1875 63.1875 C-49.48042969 63.20167969 -50.77335937 63.21585937 -52.10546875 63.23046875 C-56.1308417 62.99225711 -59.19554003 62.24841553 -63 61 C-63 58.36 -63 55.72 -63 53 C-64.65 52.34 -66.3 51.68 -68 51 C-68.05869332 47.50007197 -68.09382709 44.0002728 -68.125 40.5 C-68.14175781 39.51773438 -68.15851563 38.53546875 -68.17578125 37.5234375 C-68.2147676 31.6754846 -67.9558819 26.54382418 -66 21 C-65.01 20.67 -64.02 20.34 -63 20 C-63.185625 19.38125 -63.37125 18.7625 -63.5625 18.125 C-64 16 -64 16 -63 14 C-54.30270882 11.74566213 -44.79448157 10.93071022 -36 13 C-33.00607921 16.05040986 -32.56196285 18.55902409 -32.3125 22.75 C-32.24675781 23.73484375 -32.18101562 24.7196875 -32.11328125 25.734375 C-32.05720703 26.85585938 -32.05720703 26.85585938 -32 28 C-29.69 27.67 -27.38 27.34 -25 27 C-24.505 28.98 -24.505 28.98 -24 31 C-23.34 31 -22.68 31 -22 31 C-22.165 29.783125 -22.33 28.56625 -22.5 27.3125 C-22.51171875 25.08984375 -22.51171875 25.08984375 -22 23 C-20.16493218 21.36138713 -18.28627916 20.3612852 -16.109375 19.22265625 C-12.39996651 17.07257318 -9.91416495 13.8283299 -8 10 C-7.34 10 -6.68 10 -6 10 C-5.67 8.68 -5.34 7.36 -5 6 C-3.68 6.33 -2.36 6.66 -1 7 C-0.67 4.69 -0.34 2.38 0 0 Z M-62 43 C-62 44.65 -62 46.3 -62 48 C-61.67 48 -61.34 48 -61 48 C-61 46.35 -61 44.7 -61 43 C-61.33 43 -61.66 43 -62 43 Z " fill="#0D0D0D" transform="translate(185,371)"/>
<path d="M0 0 C0.99 0 1.98 0 3 0 C3 0.66 3 1.32 3 2 C4.8871875 2.0309375 4.8871875 2.0309375 6.8125 2.0625 C12.2576733 2.65232254 15.84459529 5.11552684 20.29296875 8.1640625 C22.74357233 9.82608802 25.19672204 11.24457264 27.8125 12.625 C32.49190806 15.16596889 36.22965646 18.22965646 40 22 C40.125 24.625 40.125 24.625 40 27 C39.34 27 38.68 27 38 27 C38.69390671 29.98713894 38.69390671 29.98713894 40.5625 31.25 C42.79991925 33.97381474 42.11643439 36.56518542 42 40 C42.185625 41.03125 42.37125 42.0625 42.5625 43.125 C43.01299598 46.08540216 42.76048625 48.12705194 42 51 C38.0334122 52.29879423 35.73574977 51.28409305 31.859375 49.890625 C25.7324114 47.9822265 19.31388907 47.09884891 13 46 C11.39572658 45.71544496 9.79156143 45.43027891 8.1875 45.14453125 C4.12623282 44.4225282 0.06353772 43.70910745 -4 43 C-4.02687279 41.18757948 -4.04633715 39.37504767 -4.0625 37.5625 C-4.07410156 36.55316406 -4.08570313 35.54382813 -4.09765625 34.50390625 C-4 32 -4 32 -3 31 C-3.81984375 30.690625 -4.6396875 30.38125 -5.484375 30.0625 C-8 28 -8 28 -8.39648438 26.11328125 C-8.45688492 23.72641848 -8.38493265 21.38381012 -8.25 19 C-8.18868479 17.37514684 -8.13123422 15.75014207 -8.078125 14.125 C-8.04106445 13.40570313 -8.00400391 12.68640625 -7.96582031 11.9453125 C-7.90671613 9.78066344 -7.90671613 9.78066344 -9 7 C-8.5625 4.8125 -8.5625 4.8125 -8 3 C-5.03 3.495 -5.03 3.495 -2 4 C-1.34 2.68 -0.68 1.36 0 0 Z M15 27 C15.061875 27.94875 15.12375 28.8975 15.1875 29.875 C15.125625 30.90625 15.06375 31.9375 15 33 C14.01 33.66 13.02 34.32 12 35 C13.485 35.99 13.485 35.99 15 37 C15.40843923 39.71203652 15.13336867 42.2437142 15 45 C15.66 45 16.32 45 17 45 C17 39.06 17 33.12 17 27 C16.34 27 15.68 27 15 27 Z " fill="#151515" transform="translate(140,448)"/>
<path d="M0 0 C4.875 1.875 4.875 1.875 6 3 C6.08737645 4.85369611 6.10698153 6.71067541 6.09765625 8.56640625 C6.09443359 9.69111328 6.09121094 10.81582031 6.08789062 11.97460938 C6.07532227 13.75061523 6.07532227 13.75061523 6.0625 15.5625 C6.05798828 16.75037109 6.05347656 17.93824219 6.04882812 19.16210938 C6.03699675 22.10812226 6.02051287 25.05403681 6 28 C4.68 28 3.36 28 2 28 C1.67 28.66 1.34 29.32 1 30 C1.99 30.33 2.98 30.66 4 31 C4.05395478 32.62463842 4.09277195 34.24978541 4.125 35.875 C4.14820313 36.77992188 4.17140625 37.68484375 4.1953125 38.6171875 C4 41 4 41 2 43 C-0.10402068 43.61816241 -2.23438426 44.14877313 -4.375 44.625 C-5.51710938 44.88539063 -6.65921875 45.14578125 -7.8359375 45.4140625 C-11 46 -11 46 -15 46 C-15 42 -15 38 -15 34 C-15.495 33.505 -15.495 33.505 -16 33 C-15.97679687 33.91523438 -15.95359375 34.83046875 -15.9296875 35.7734375 C-15.90261719 37.55621094 -15.90261719 37.55621094 -15.875 39.375 C-15.85179687 40.55835938 -15.82859375 41.74171875 -15.8046875 42.9609375 C-16 46 -16 46 -18 48 C-20.13671875 48.52734375 -20.13671875 48.52734375 -22.6875 48.9375 C-25.94583264 49.52353105 -28.76107668 50.20074795 -31.75 51.625 C-35.12869857 53.05444939 -37.37629092 53.26514944 -41 53 C-41 52.01 -41 51.02 -41 50 C-42.485 50.495 -42.485 50.495 -44 51 C-43.67 49.68 -43.34 48.36 -43 47 C-42.67 47 -42.34 47 -42 47 C-41.67 44.03 -41.34 41.06 -41 38 C-41.66 37.67 -42.32 37.34 -43 37 C-42.505 36.21625 -42.01 35.4325 -41.5 34.625 C-39.74844164 31.55977288 -39.95209213 30.70264882 -40.1875 27.25 C-39.95002138 23.13370392 -39.45314433 21.36431223 -37 18 C-34.37151755 16.34894318 -31.67449885 14.96224943 -28.8984375 13.57421875 C-26.11356542 12.06168041 -23.91163934 10.41662247 -21.5 8.375 C-15.46087295 3.47635558 -8.77448697 0.87767416 -1 1 C-0.67 0.67 -0.34 0.34 0 0 Z M-2 5 C-4.37015245 7.65484449 -4.37015245 7.65484449 -5 11 C-4.34 11 -3.68 11 -3 11 C-2.34 9.02 -1.68 7.04 -1 5 C-1.33 5 -1.66 5 -2 5 Z M-5 16 C-4 18 -4 18 -4 18 Z M-5 19 C-4 21 -4 21 -4 21 Z M-23 21 C-21.68 21 -20.36 21 -19 21 C-18.67 21.66 -18.34 22.32 -18 23 C-18 21.68 -18 20.36 -18 19 C-20.32357511 18.81509993 -20.32357511 18.81509993 -23 21 Z M-8 31 C-4 32 -4 32 -4 32 Z " fill="#141414" transform="translate(267,445)"/>
<path d="M0 0 C0.33 0 0.66 0 1 0 C1.38187078 9.73770492 1.38187078 9.73770492 -1 14 C-1.98020375 15.0194119 -2.97803008 16.02246356 -4 17 C-4.33 17.99 -4.66 18.98 -5 20 C-3.35 20 -1.7 20 0 20 C0.33 18.68 0.66 17.36 1 16 C1 19.63 1 23.26 1 27 C-0.65 27.66 -2.3 28.32 -4 29 C-4 29.99 -4 30.98 -4 32 C-4.99 32 -5.98 32 -7 32 C-7 32.99 -7 33.98 -7 35 C-4.36 35 -1.72 35 1 35 C1 37.97 1 40.94 1 44 C-3.18748519 44.02920143 -7.37494391 44.04686646 -11.5625 44.0625 C-12.74392578 44.07087891 -13.92535156 44.07925781 -15.14257812 44.08789062 C-20.86863072 44.10392999 -26.36394482 44.0510705 -32 43 C-32.19517554 41.06325815 -32.38087873 39.12555991 -32.5625 37.1875 C-32.66691406 36.10855469 -32.77132812 35.02960938 -32.87890625 33.91796875 C-33 31 -33 31 -32 28 C-28.535 27.505 -28.535 27.505 -25 27 C-24.67 28.32 -24.34 29.64 -24 31 C-23.34 31 -22.68 31 -22 31 C-22.165 29.783125 -22.33 28.56625 -22.5 27.3125 C-22.51171875 25.08984375 -22.51171875 25.08984375 -22 23 C-20.16493218 21.36138713 -18.28627916 20.3612852 -16.109375 19.22265625 C-12.39996651 17.07257318 -9.91416495 13.8283299 -8 10 C-7.34 10 -6.68 10 -6 10 C-5.67 8.68 -5.34 7.36 -5 6 C-3.68 6.33 -2.36 6.66 -1 7 C-0.67 4.69 -0.34 2.38 0 0 Z " fill="#232323" transform="translate(185,371)"/>
<path d="M0 0 C0.33 0 0.66 0 1 0 C1.73259082 10.6879768 2.14036598 21.28539694 2 32 C2.66 30.68 3.32 29.36 4 28 C4.05447047 29.41623216 4.09300508 30.83308191 4.125 32.25 C4.14820313 33.03890625 4.17140625 33.8278125 4.1953125 34.640625 C3.9828378 37.20731941 3.28654105 38.7916067 2 41 C-5.75 40.125 -5.75 40.125 -8 39 C-8 38.34 -8 37.68 -8 37 C-7.34 37 -6.68 37 -6 37 C-6.185625 36.443125 -6.37125 35.88625 -6.5625 35.3125 C-7.07551165 32.600867 -6.6640724 30.65628961 -6 28 C-12.4553427 24.77232865 -22.96312141 27.06071219 -29.953125 27.87890625 C-30.62859375 27.91886719 -31.3040625 27.95882813 -32 28 C-33 27 -33 27 -33.125 23.5 C-33 20 -33 20 -32 19 C-28.96974198 18.46178999 -25.92923012 18.03443179 -22.8828125 17.59765625 C-19.81986187 17.15019525 -19.81986187 17.15019525 -17 15 C-15.0625 14.98046875 -15.0625 14.98046875 -13 15.1875 C-10.89747998 15.3224717 -10.89747998 15.3224717 -9 15 C-7.28288757 12.55503957 -7.28288757 12.55503957 -6 10 C-4.35 10 -2.7 10 -1 10 C-0.67 6.7 -0.34 3.4 0 0 Z " fill="#1A1A1A" transform="translate(249,386)"/>
<path d="M0 0 C0.33 0 0.66 0 1 0 C1 5.61 1 11.22 1 17 C-0.32 17 -1.64 17 -3 17 C-3.33 17.66 -3.66 18.32 -4 19 C-3.01 19.33 -2.02 19.66 -1 20 C-0.94604522 21.62463842 -0.90722805 23.24978541 -0.875 24.875 C-0.85179687 25.77992188 -0.82859375 26.68484375 -0.8046875 27.6171875 C-1 30 -1 30 -3 32 C-5.10402068 32.61816241 -7.23438426 33.14877313 -9.375 33.625 C-11.08816406 34.01558594 -11.08816406 34.01558594 -12.8359375 34.4140625 C-16 35 -16 35 -20 35 C-20.28525467 31.62131695 -20.4508813 28.36802897 -20 25 C-17.625 22.9375 -17.625 22.9375 -15 22 C-14.34 21.67 -13.68 21.34 -13 21 C-10.3276379 20.86584528 -7.67749512 20.95681459 -5 21 C-5 19.02 -5 17.04 -5 15 C-2.525 15.495 -2.525 15.495 0 16 C0 10.72 0 5.44 0 0 Z " fill="#222222" transform="translate(272,456)"/>
<path d="M0 0 C-0.01160156 0.65226562 -0.02320313 1.30453125 -0.03515625 1.9765625 C-0.09659444 7.61212832 -0.09659444 7.61212832 0.625 13.1875 C1.11313418 16.84850635 0.17655418 19.53954653 -1 23 C-1.66 23 -2.32 23 -3 23 C-3 24.65 -3 26.3 -3 28 C-3.66 28.33 -4.32 28.66 -5 29 C-5.68707555 26.50935112 -6 24.62113708 -6 22 C-6.66 22 -7.32 22 -8 22 C-8.93854006 14.96094956 -9.10808032 8.09727428 -9 1 C-3.375 -1.125 -3.375 -1.125 0 0 Z " fill="#1C1C1C" transform="translate(263,300)"/>
<path d="M0 0 C1.65 0 3.3 0 5 0 C6.75210338 4.48976491 7.37076135 8.18010242 7 13 C6.34 13.66 5.68 14.32 5 15 C1.375 14.625 1.375 14.625 -2 14 C-3 7.375 -3 7.375 -3 4 C-2.34 4.33 -1.68 4.66 -1 5 C-0.67 3.35 -0.34 1.7 0 0 Z " fill="#2F2F30" transform="translate(154,415)"/>
<path d="M0 0 C1.31626692 3.61973402 2 6.09567131 2 10 C1.34 10 0.68 10 0 10 C-0.33 10.99 -0.66 11.98 -1 13 C-1 12.34 -1 11.68 -1 11 C-1.804375 11.020625 -2.60875 11.04125 -3.4375 11.0625 C-6 11 -6 11 -7 10 C-7.07205511 8.31391034 -7.08386068 6.62499341 -7.0625 4.9375 C-7.05347656 4.01839844 -7.04445312 3.09929687 -7.03515625 2.15234375 C-7.02355469 1.44207031 -7.01195312 0.73179688 -7 0 C-4.3333581 -1.33332095 -2.83319697 -0.67102033 0 0 Z " fill="#252525" transform="translate(196,64)"/>
<path d="M0 0 C1.65 0 3.3 0 5 0 C5.93742541 2.81227622 6.13470844 4.58746844 6.125 7.5 C6.12757813 8.2734375 6.13015625 9.046875 6.1328125 9.84375 C6 12 6 12 5 15 C2.69 15 0.38 15 -2 15 C-2 12.03 -2 9.06 -2 6 C-1.67 6 -1.34 6 -1 6 C-0.67 4.02 -0.34 2.04 0 0 Z " fill="#373737" transform="translate(202,245)"/>
<path d="M0 0 C0.33 0 0.66 0 1 0 C1.86039692 10.81452748 2.0229267 21.18845168 1 32 C0.67 32 0.34 32 0 32 C-1.40027356 9.19872014 -1.40027356 9.19872014 0 0 Z " fill="#808080" transform="translate(249,386)"/>
<path d="M0 0 C0.99 0.33 1.98 0.66 3 1 C3 5.95 3 10.9 3 16 C2.34 16 1.68 16 1 16 C-0.14077657 12.57767028 -0.09815117 9.91326783 -0.0625 6.3125 C-0.05347656 5.13300781 -0.04445312 3.95351562 -0.03515625 2.73828125 C-0.02355469 1.83464844 -0.01195312 0.93101563 0 0 Z " fill="#6B6B6D" transform="translate(230,85)"/>
<path d="M0 0 C0.66 0 1.32 0 2 0 C2.33 2.31 2.66 4.62 3 7 C2.34 7 1.68 7 1 7 C1 7.99 1 8.98 1 10 C-1.31 10.33 -3.62 10.66 -6 11 C-4.68 10.01 -3.36 9.02 -2 8 C-1.34 8.33 -0.68 8.66 0 9 C0 8.34 0 7.68 0 7 C-0.66 6.67 -1.32 6.34 -2 6 C-1.34 6 -0.68 6 0 6 C0 4.02 0 2.04 0 0 Z " fill="#868688" transform="translate(213,234)"/>
<path d="M0 0 C0.99 0 1.98 0 3 0 C3.33 1.65 3.66 3.3 4 5 C2.35 6.32 0.7 7.64 -1 9 C-0.67 7.35 -0.34 5.7 0 4 C0.66 4 1.32 4 2 4 C1.34 2.68 0.68 1.36 0 0 Z " fill="#505051" transform="translate(158,123)"/>
<path d="M0 0 C0.99 0.33 1.98 0.66 3 1 C2.38722388 3.96175123 1.74627478 5.38058783 0 8 C-1.125 2.25 -1.125 2.25 0 0 Z " fill="#616161" transform="translate(238,392)"/>
<path d="M0 0 C2.64 0.33 5.28 0.66 8 1 C8 1.99 8 2.98 8 4 C5.23723823 3.47731534 2.6739124 2.89130413 0 2 C0 1.34 0 0.68 0 0 Z " fill="#AAAAAA" transform="translate(151,225)"/>
</svg>
