<?xml version="1.0" encoding="UTF-8"?>
<svg version="1.1" xmlns="http://www.w3.org/2000/svg" width="600" height="600">
<path d="M0 0 C2.64 0 5.28 0 8 0 C11.54717318 6.77578955 14.51012734 13.7668334 17.42871094 20.82885742 C18.25637958 22.82790848 19.09283268 24.8231393 19.9296875 26.81835938 C20.4588688 28.09352792 20.98753365 29.36891093 21.515625 30.64453125 C22.23153809 32.36700073 22.23153809 32.36700073 22.96191406 34.12426758 C24 37 24 37 24 40 C24.66 40 25.32 40 26 40 C26.14550293 39.45287354 26.29100586 38.90574707 26.44091797 38.34204102 C28.51760102 30.97019104 31.34253628 23.96109481 34.29833984 16.91040039 C35.13567304 14.91202782 35.9648262 12.91039961 36.79296875 10.90820312 C40.85303 1.14697 40.85303 1.14697 42 0 C44.64 0 47.28 0 50 0 C50 16.5 50 33 50 50 C47.69 50 45.38 50 43 50 C42.67 39.44 42.34 28.88 42 18 C40.60974609 21.33931641 40.60974609 21.33931641 39.19140625 24.74609375 C38.29510773 26.89420975 37.39796207 29.04197005 36.50073242 31.18969727 C35.87614609 32.68607154 35.25244538 34.18281579 34.62963867 35.67993164 C33.7358719 37.82795823 32.83896065 39.97464756 31.94140625 42.12109375 C31.6622084 42.79401962 31.38301056 43.4669455 31.09535217 44.16026306 C29.11387171 48.88612829 29.11387171 48.88612829 28 50 C26.00041636 50.04080783 23.99954746 50.04254356 22 50 C16.79543044 39.19657531 12.40037731 28.15268043 8 17 C7.67 27.89 7.34 38.78 7 50 C4.69 50 2.38 50 0 50 C0 33.5 0 17 0 0 Z " fill="#000000" transform="translate(270,314)"/>
<path d="M0 0 C2.31 0 4.62 0 7 0 C9.1682158 2.18074884 10.60901583 3.96677563 12.25 6.5 C12.70963135 7.16765381 13.1692627 7.83530762 13.64282227 8.52319336 C14.61526522 9.94070011 15.57736616 11.36534907 16.52978516 12.79638672 C17.99889953 14.99835057 19.49924863 17.1752883 21.01171875 19.34765625 C25.07290222 25.18977947 29.05317406 31.07976109 33 37 C33.33 24.79 33.66 12.58 34 0 C36.31 0 38.62 0 41 0 C41 16.5 41 33 41 50 C33 50 33 50 30.76586914 48.0949707 C30.19473389 47.21413818 29.62359863 46.33330566 29.03515625 45.42578125 C28.37966797 44.44673828 27.72417969 43.46769531 27.04882812 42.45898438 C26.0655957 40.90147461 26.0655957 40.90147461 25.0625 39.3125 C23.74092448 37.30856799 22.4193096 35.30466194 21.09765625 33.30078125 C19.06931641 30.18189453 19.06931641 30.18189453 17 27 C14.03 22.71 11.06 18.42 8 14 C7.67 25.88 7.34 37.76 7 50 C4.69 50 2.38 50 0 50 C0 33.5 0 17 0 0 Z " fill="#000000" transform="translate(96,314)"/>
<path d="M0 0 C2.31 0 4.62 0 7 0 C9.1682158 2.18074884 10.60901583 3.96677563 12.25 6.5 C12.70963135 7.16765381 13.1692627 7.83530762 13.64282227 8.52319336 C14.61526522 9.94070011 15.57736616 11.36534907 16.52978516 12.79638672 C17.99889953 14.99835057 19.49924863 17.1752883 21.01171875 19.34765625 C25.07290222 25.18977947 29.05317406 31.07976109 33 37 C33.33 24.79 33.66 12.58 34 0 C36.31 0 38.62 0 41 0 C41 16.5 41 33 41 50 C33 50 33 50 30.76586914 48.0949707 C30.19473389 47.21413818 29.62359863 46.33330566 29.03515625 45.42578125 C28.37966797 44.44673828 27.72417969 43.46769531 27.04882812 42.45898438 C26.0655957 40.90147461 26.0655957 40.90147461 25.0625 39.3125 C23.74092448 37.30856799 22.4193096 35.30466194 21.09765625 33.30078125 C19.06931641 30.18189453 19.06931641 30.18189453 17 27 C14.03 22.71 11.06 18.42 8 14 C7.67 25.88 7.34 37.76 7 50 C4.69 50 2.38 50 0 50 C0 33.5 0 17 0 0 Z " fill="#000000" transform="translate(515,230)"/>
<path d="M0 0 C2.31 0 4.62 0 7 0 C9.1682158 2.18074884 10.60901583 3.96677563 12.25 6.5 C12.70963135 7.16765381 13.1692627 7.83530762 13.64282227 8.52319336 C14.61526522 9.94070011 15.57736616 11.36534907 16.52978516 12.79638672 C17.99889953 14.99835057 19.49924863 17.1752883 21.01171875 19.34765625 C25.07290222 25.18977947 29.05317406 31.07976109 33 37 C33.33 24.79 33.66 12.58 34 0 C36.31 0 38.62 0 41 0 C41 16.5 41 33 41 50 C33 50 33 50 30.76586914 48.0949707 C30.19473389 47.21413818 29.62359863 46.33330566 29.03515625 45.42578125 C28.37966797 44.44673828 27.72417969 43.46769531 27.04882812 42.45898438 C26.0655957 40.90147461 26.0655957 40.90147461 25.0625 39.3125 C23.74092448 37.30856799 22.4193096 35.30466194 21.09765625 33.30078125 C19.06931641 30.18189453 19.06931641 30.18189453 17 27 C14.03 22.71 11.06 18.42 8 14 C7.67 25.88 7.34 37.76 7 50 C4.69 50 2.38 50 0 50 C0 33.5 0 17 0 0 Z " fill="#000000" transform="translate(421,230)"/>
<path d="M0 0 C2.31 0 4.62 0 7 0 C9.1682158 2.18074884 10.60901583 3.96677563 12.25 6.5 C12.70963135 7.16765381 13.1692627 7.83530762 13.64282227 8.52319336 C14.61526522 9.94070011 15.57736616 11.36534907 16.52978516 12.79638672 C17.99889953 14.99835057 19.49924863 17.1752883 21.01171875 19.34765625 C25.07290222 25.18977947 29.05317406 31.07976109 33 37 C33.33 24.79 33.66 12.58 34 0 C36.31 0 38.62 0 41 0 C41 16.5 41 33 41 50 C33 50 33 50 30.76586914 48.0949707 C30.19473389 47.21413818 29.62359863 46.33330566 29.03515625 45.42578125 C28.37966797 44.44673828 27.72417969 43.46769531 27.04882812 42.45898438 C26.0655957 40.90147461 26.0655957 40.90147461 25.0625 39.3125 C23.74092448 37.30856799 22.4193096 35.30466194 21.09765625 33.30078125 C19.06931641 30.18189453 19.06931641 30.18189453 17 27 C14.03 22.71 11.06 18.42 8 14 C7.67 25.88 7.34 37.76 7 50 C4.69 50 2.38 50 0 50 C0 33.5 0 17 0 0 Z " fill="#000000" transform="translate(372,230)"/>
<path d="M0 0 C3.29750034 2.80407875 5.92202432 5.35875233 7.515625 9.4453125 C7.515625 10.7653125 7.515625 12.0853125 7.515625 13.4453125 C4.265625 13.8203125 4.265625 13.8203125 0.515625 13.4453125 C-1.609375 10.6328125 -1.609375 10.6328125 -3.484375 7.4453125 C-7.198069 4.26214621 -10.54724159 3.96775358 -15.2734375 4.171875 C-19.32286911 4.6726881 -22.07087762 5.76761 -24.73828125 8.93359375 C-28.58038568 15.18538041 -28.30918451 22.36019883 -27.484375 29.4453125 C-26.29803451 33.43407975 -24.5095015 36.26831541 -21.796875 39.3828125 C-17.55802812 41.3303908 -13.03120692 42.03680322 -8.44921875 40.97265625 C-4.7463219 39.5339511 -2.37513024 37.92828267 -0.484375 34.4453125 C0.175625 32.4653125 0.835625 30.4853125 1.515625 28.4453125 C-3.104375 28.4453125 -7.724375 28.4453125 -12.484375 28.4453125 C-12.484375 26.4653125 -12.484375 24.4853125 -12.484375 22.4453125 C-5.554375 22.4453125 1.375625 22.4453125 8.515625 22.4453125 C8.515625 36.97864583 8.515625 36.97864583 3.93359375 42.2734375 C-2.33375259 47.89902942 -7.9392334 48.90813427 -16.25390625 48.7578125 C-22.42070524 48.16126604 -25.97418391 45.95550359 -30.296875 41.6328125 C-35.87197177 33.50910006 -37.24424306 25.53070193 -35.921875 15.8828125 C-34.56144219 9.52211342 -31.91200321 3.91020052 -26.5234375 0.03515625 C-18.35294331 -4.33183203 -8.06779825 -5.04871651 0 0 Z " fill="#000000" transform="translate(36.484375,316.5546875)"/>
<path d="M0 0 C3.29750034 2.80407875 5.92202432 5.35875233 7.515625 9.4453125 C7.515625 10.7653125 7.515625 12.0853125 7.515625 13.4453125 C4.265625 13.8203125 4.265625 13.8203125 0.515625 13.4453125 C-1.609375 10.6328125 -1.609375 10.6328125 -3.484375 7.4453125 C-7.198069 4.26214621 -10.54724159 3.96775358 -15.2734375 4.171875 C-19.32286911 4.6726881 -22.07087762 5.76761 -24.73828125 8.93359375 C-28.58038568 15.18538041 -28.30918451 22.36019883 -27.484375 29.4453125 C-26.29803451 33.43407975 -24.5095015 36.26831541 -21.796875 39.3828125 C-17.55802812 41.3303908 -13.03120692 42.03680322 -8.44921875 40.97265625 C-4.7463219 39.5339511 -2.37513024 37.92828267 -0.484375 34.4453125 C0.175625 32.4653125 0.835625 30.4853125 1.515625 28.4453125 C-3.104375 28.4453125 -7.724375 28.4453125 -12.484375 28.4453125 C-12.484375 26.4653125 -12.484375 24.4853125 -12.484375 22.4453125 C-5.554375 22.4453125 1.375625 22.4453125 8.515625 22.4453125 C8.515625 36.97864583 8.515625 36.97864583 3.93359375 42.2734375 C-2.33375259 47.89902942 -7.9392334 48.90813427 -16.25390625 48.7578125 C-22.42070524 48.16126604 -25.97418391 45.95550359 -30.296875 41.6328125 C-35.87197177 33.50910006 -37.24424306 25.53070193 -35.921875 15.8828125 C-34.56144219 9.52211342 -31.91200321 3.91020052 -26.5234375 0.03515625 C-18.35294331 -4.33183203 -8.06779825 -5.04871651 0 0 Z " fill="#000000" transform="translate(77.484375,232.5546875)"/>
<path d="M0 0 C5.46253166 6.2128071 6.97505996 14.34146261 6.828125 22.3828125 C6.11223358 30.89246518 3.07352461 37.21474651 -3.37890625 42.84375 C-9.53245963 46.78202416 -16.23660958 46.62162389 -23.37890625 45.84375 C-29.63295188 44.13810119 -33.83635143 40.16342803 -37.37890625 34.84375 C-41.30440311 26.43197102 -41.01901171 16.58746561 -38.37890625 7.84375 C-35.91336805 2.31019246 -32.88085203 -1.40527711 -27.37890625 -4.15625 C-18.15571492 -7.68384509 -7.6113547 -6.45620107 0 0 Z M-29.69140625 7.40625 C-33.80056952 13.34170806 -33.02661116 20.92770092 -32.37890625 27.84375 C-31.20109865 31.05209791 -29.6927347 33.34831292 -27.37890625 35.84375 C-26.51265625 36.8028125 -26.51265625 36.8028125 -25.62890625 37.78125 C-20.60912235 40.15170351 -15.92094736 40.28066165 -10.62890625 38.78125 C-5.56233712 35.76079533 -3.06386533 32.68068572 -1.00390625 27.15625 C0.33623262 20.3514672 -0.09908465 13.42834016 -3.56640625 7.34375 C-6.04840018 3.8930006 -8.23616904 2.11843837 -12.37890625 0.84375 C-20.03368038 -0.24388877 -24.44312533 1.59058736 -29.69140625 7.40625 Z " fill="#000000" transform="translate(417.37890625,319.15625)"/>
<path d="M0 0 C5.46253166 6.2128071 6.97505996 14.34146261 6.828125 22.3828125 C6.11223358 30.89246518 3.07352461 37.21474651 -3.37890625 42.84375 C-9.53245963 46.78202416 -16.23660958 46.62162389 -23.37890625 45.84375 C-29.63295188 44.13810119 -33.83635143 40.16342803 -37.37890625 34.84375 C-41.30440311 26.43197102 -41.01901171 16.58746561 -38.37890625 7.84375 C-35.91336805 2.31019246 -32.88085203 -1.40527711 -27.37890625 -4.15625 C-18.15571492 -7.68384509 -7.6113547 -6.45620107 0 0 Z M-29.69140625 7.40625 C-33.80056952 13.34170806 -33.02661116 20.92770092 -32.37890625 27.84375 C-31.20109865 31.05209791 -29.6927347 33.34831292 -27.37890625 35.84375 C-26.51265625 36.8028125 -26.51265625 36.8028125 -25.62890625 37.78125 C-20.60912235 40.15170351 -15.92094736 40.28066165 -10.62890625 38.78125 C-5.56233712 35.76079533 -3.06386533 32.68068572 -1.00390625 27.15625 C0.33623262 20.3514672 -0.09908465 13.42834016 -3.56640625 7.34375 C-6.04840018 3.8930006 -8.23616904 2.11843837 -12.37890625 0.84375 C-20.03368038 -0.24388877 -24.44312533 1.59058736 -29.69140625 7.40625 Z " fill="#000000" transform="translate(366.37890625,319.15625)"/>
<path d="M0 0 C5.46253166 6.2128071 6.97505996 14.34146261 6.828125 22.3828125 C6.11223358 30.89246518 3.07352461 37.21474651 -3.37890625 42.84375 C-9.53245963 46.78202416 -16.23660958 46.62162389 -23.37890625 45.84375 C-29.63295188 44.13810119 -33.83635143 40.16342803 -37.37890625 34.84375 C-41.30440311 26.43197102 -41.01901171 16.58746561 -38.37890625 7.84375 C-35.91336805 2.31019246 -32.88085203 -1.40527711 -27.37890625 -4.15625 C-18.15571492 -7.68384509 -7.6113547 -6.45620107 0 0 Z M-29.69140625 7.40625 C-33.80056952 13.34170806 -33.02661116 20.92770092 -32.37890625 27.84375 C-31.20109865 31.05209791 -29.6927347 33.34831292 -27.37890625 35.84375 C-26.51265625 36.8028125 -26.51265625 36.8028125 -25.62890625 37.78125 C-20.60912235 40.15170351 -15.92094736 40.28066165 -10.62890625 38.78125 C-5.56233712 35.76079533 -3.06386533 32.68068572 -1.00390625 27.15625 C0.33623262 20.3514672 -0.09908465 13.42834016 -3.56640625 7.34375 C-6.04840018 3.8930006 -8.23616904 2.11843837 -12.37890625 0.84375 C-20.03368038 -0.24388877 -24.44312533 1.59058736 -29.69140625 7.40625 Z " fill="#000000" transform="translate(131.37890625,235.15625)"/>
<path d="M0 0 C26.4375 0 26.4375 0 32.375 5 C35.63036938 9.00660847 35.33077092 13.33402085 35.28515625 18.2734375 C34.68763533 23.98671968 30.87946151 27.16128914 27 31 C27.30292969 31.54003662 27.60585938 32.08007324 27.91796875 32.63647461 C29.28083586 35.06893031 30.64045778 37.50318453 32 39.9375 C32.47695313 40.78763672 32.95390625 41.63777344 33.4453125 42.51367188 C33.89648438 43.32255859 34.34765625 44.13144531 34.8125 44.96484375 C35.44091797 46.08814087 35.44091797 46.08814087 36.08203125 47.23413086 C37 49 37 49 37 50 C34.03 50 31.06 50 28 50 C26.49498012 47.21093539 24.9958193 44.41899281 23.5 41.625 C23.07074219 40.8309375 22.64148438 40.036875 22.19921875 39.21875 C21.79316406 38.45820313 21.38710938 37.69765625 20.96875 36.9140625 C20.59169922 36.2123291 20.21464844 35.5105957 19.82617188 34.78759766 C19 33 19 33 19 31 C15.04 31 11.08 31 7 31 C7 37.27 7 43.54 7 50 C4.69 50 2.38 50 0 50 C0 33.5 0 17 0 0 Z M7 7 C7 12.94 7 18.88 7 25 C10.3103125 25.0928125 10.3103125 25.0928125 13.6875 25.1875 C14.92886719 25.22230469 16.17023438 25.25710938 17.44921875 25.29296875 C22.20179198 24.90084225 24.68203836 23.31796164 28 20 C28.75344832 14.20837442 28.75344832 14.20837442 25.9921875 9.2578125 C22.04478642 6.27922526 19.46319707 6.4122507 14.6875 6.6875 C10.8821875 6.8421875 10.8821875 6.8421875 7 7 Z " fill="#000000" transform="translate(430,314)"/>
<path d="M0 0 C2.83136265 3.45072323 3.8766193 7.16317342 5 11.4375 C1.6875 11.75 1.6875 11.75 -2 11.4375 C-3.6875 9.0625 -3.6875 9.0625 -5 6.4375 C-8.03092983 4.08011013 -11.25800724 4.07486589 -15.03125 4.1875 C-18.00328398 4.56490114 -19.75970547 5.46875632 -22 7.4375 C-23.24401278 9.82358611 -23.24401278 9.82358611 -23 12.4375 C-19.31036425 17.44138595 -14.09197171 18.04136184 -8.375 19.41601562 C-3.08396013 20.80421248 0.14171097 22.50263424 4 26.4375 C6.22989814 30.73526215 6.43155869 35.15529666 5 39.75 C3.24730032 43.67792518 0.82120087 45.44729122 -3 47.4375 C-9.56382423 49.62544141 -18.23361292 49.70219202 -24.625 46.875 C-28.58178158 44.48904373 -30.19843123 41.64116047 -32 37.4375 C-32 36.1175 -32 34.7975 -32 33.4375 C-29.69 33.4375 -27.38 33.4375 -25 33.4375 C-24.814375 34.38625 -24.62875 35.335 -24.4375 36.3125 C-23.28530467 39.69346807 -23.28530467 39.69346807 -20 40.875 C-14.37999166 42.05567402 -8.39550325 41.23600108 -3 39.4375 C-3 36.4675 -3 33.4975 -3 30.4375 C-6.90244381 28.16107445 -10.52383702 27.00788791 -14.9375 26 C-21.20584643 24.49124168 -26.00244225 23.12171822 -30 17.75 C-31.33029634 13.34339338 -31.29616835 9.85553725 -30 5.4375 C-28.16992204 2.12224339 -25.92634441 -0.06369917 -22.5625 -1.875 C-21.2940625 -2.2153125 -21.2940625 -2.2153125 -20 -2.5625 C-19.13375 -2.81 -18.2675 -3.0575 -17.375 -3.3125 C-11.2959746 -3.76279818 -5.42332494 -2.82464841 0 0 Z " fill="#000000" transform="translate(214,316.5625)"/>
<path d="M0 0 C2.31 0 4.62 0 7 0 C7 7.26 7 14.52 7 22 C15.91 22 24.82 22 34 22 C34 14.74 34 7.48 34 0 C36.31 0 38.62 0 41 0 C41 16.5 41 33 41 50 C38.69 50 36.38 50 34 50 C34 42.74 34 35.48 34 28 C25.09 28 16.18 28 7 28 C7 35.26 7 42.52 7 50 C4.69 50 2.38 50 0 50 C0 33.5 0 17 0 0 Z " fill="#000000" transform="translate(513,314)"/>
<path d="M0 0 C2.31 0 4.62 0 7 0 C7.33 7.59 7.66 15.18 8 23 C9.8871875 20.64875 9.8871875 20.64875 11.8125 18.25 C13.08286486 16.71397708 14.35354686 15.17819954 15.63085938 13.64794922 C16.55302068 12.53800114 17.46828096 11.42228742 18.37695312 10.30126953 C19.7493024 8.61768071 21.15154685 6.96378989 22.5625 5.3125 C22.98442627 4.78366211 23.40635254 4.25482422 23.84106445 3.70996094 C25.72043414 1.56231345 27.25289556 0.1150847 30.12060547 -0.32666016 C32.33984375 -0.33203125 32.33984375 -0.33203125 36 0 C34.4175669 3.76267426 32.03446237 6.29678233 29.25 9.25 C25.14391424 13.60799286 21.5263806 18.16076774 18 23 C18.589021 23.74721313 18.589021 23.74721313 19.18994141 24.50952148 C21.00506626 26.81616486 22.81504267 29.12679995 24.625 31.4375 C25.24246094 32.22060547 25.85992187 33.00371094 26.49609375 33.81054688 C30.59264839 39.04982465 34.39462075 44.41141145 38 50 C34.39417835 50.62958791 32.46210265 50.93513547 29 50 C25.42035463 46.75872907 22.77084661 42.93672196 20 39 C18.69747841 37.26330454 17.38596996 35.53328496 16.0625 33.8125 C15.51722656 33.07644531 14.97195313 32.34039062 14.41015625 31.58203125 C13.94480469 31.05996094 13.47945313 30.53789062 13 30 C10.92488973 29.79430279 10.92488973 29.79430279 9.40698242 31.24926758 C7.73437551 33.33052111 7.5874761 34.37313585 7.48828125 37.01171875 C7.45283203 37.76904297 7.41738281 38.52636719 7.38085938 39.30664062 C7.35830078 40.09232422 7.33574219 40.87800781 7.3125 41.6875 C7.27833984 42.48478516 7.24417969 43.28207031 7.20898438 44.10351562 C7.12661896 46.06851904 7.06162933 48.03423696 7 50 C4.69 50 2.38 50 0 50 C0 33.5 0 17 0 0 Z " fill="#000000" transform="translate(286,230)"/>
<path d="M0 0 C2.31 0 4.62 0 7 0 C7.33 7.59 7.66 15.18 8 23 C9.8871875 20.64875 9.8871875 20.64875 11.8125 18.25 C13.08286486 16.71397708 14.35354686 15.17819954 15.63085938 13.64794922 C16.55302068 12.53800114 17.46828096 11.42228742 18.37695312 10.30126953 C19.7493024 8.61768071 21.15154685 6.96378989 22.5625 5.3125 C22.98442627 4.78366211 23.40635254 4.25482422 23.84106445 3.70996094 C25.72043414 1.56231345 27.25289556 0.1150847 30.12060547 -0.32666016 C32.33984375 -0.33203125 32.33984375 -0.33203125 36 0 C34.4175669 3.76267426 32.03446237 6.29678233 29.25 9.25 C25.14391424 13.60799286 21.5263806 18.16076774 18 23 C18.589021 23.74721313 18.589021 23.74721313 19.18994141 24.50952148 C21.00506626 26.81616486 22.81504267 29.12679995 24.625 31.4375 C25.24246094 32.22060547 25.85992187 33.00371094 26.49609375 33.81054688 C30.59264839 39.04982465 34.39462075 44.41141145 38 50 C34.39417835 50.62958791 32.46210265 50.93513547 29 50 C25.42035463 46.75872907 22.77084661 42.93672196 20 39 C18.69747841 37.26330454 17.38596996 35.53328496 16.0625 33.8125 C15.51722656 33.07644531 14.97195312 32.34039062 14.41015625 31.58203125 C13.94480469 31.05996094 13.47945312 30.53789062 13 30 C10.92488973 29.79430279 10.92488973 29.79430279 9.40698242 31.24926758 C7.73437551 33.33052111 7.5874761 34.37313585 7.48828125 37.01171875 C7.45283203 37.76904297 7.41738281 38.52636719 7.38085938 39.30664062 C7.35830078 40.09232422 7.33574219 40.87800781 7.3125 41.6875 C7.27833984 42.48478516 7.24417969 43.28207031 7.20898438 44.10351562 C7.12661896 46.06851904 7.06162933 48.03423696 7 50 C4.69 50 2.38 50 0 50 C0 33.5 0 17 0 0 Z " fill="#000000" transform="translate(144,230)"/>
<path d="M0 0 C10.56 0 21.12 0 32 0 C32 2.31 32 4.62 32 7 C23.75 7 15.5 7 7 7 C7 11.95 7 16.9 7 22 C14.59 22 22.18 22 30 22 C30 23.98 30 25.96 30 28 C22.41 28 14.82 28 7 28 C7 33.28 7 38.56 7 44 C15.25 44 23.5 44 32 44 C32 45.98 32 47.96 32 50 C21.44 50 10.88 50 0 50 C0 33.5 0 17 0 0 Z " fill="#000000" transform="translate(145,314)"/>
<path d="M0 0 C2.31 0 4.62 0 7 0 C7.01458252 0.99330322 7.02916504 1.98660645 7.04418945 3.01000977 C7.10248162 6.72097461 7.1797103 10.43135215 7.26245117 14.1418457 C7.29555592 15.74298519 7.32363221 17.34423732 7.34643555 18.94555664 C7.38024982 21.25715817 7.43257451 23.56774078 7.48828125 25.87890625 C7.49467117 26.58648575 7.5010611 27.29406525 7.50764465 28.02308655 C7.65533281 33.09802142 8.64347853 36.58338138 11 41 C15.74629727 44.03763025 19.44181984 44.4351341 24.98046875 43.5859375 C27.84277213 42.75548198 29.26715537 41.38266137 31 39 C32.60951543 35.78096915 32.24234748 32.25161168 32.31640625 28.7109375 C32.33718735 27.89251373 32.35796844 27.07408997 32.37937927 26.23086548 C32.44484812 23.61233034 32.50374726 20.99369361 32.5625 18.375 C32.60568776 16.60155193 32.64930214 14.82811419 32.69335938 13.0546875 C32.80052676 8.70322954 32.90180169 4.35166923 33 0 C35.31 0 37.62 0 40 0 C40.09928585 5.4259718 40.17166467 10.85140841 40.21972656 16.27807617 C40.23977361 18.12191994 40.2670188 19.96570068 40.30175781 21.80932617 C40.35058208 24.4680949 40.37303772 27.12601915 40.390625 29.78515625 C40.41127014 30.60210464 40.43191528 31.41905304 40.45318604 32.26075745 C40.45540797 37.99924628 39.3218546 41.2900473 36 46 C28.97875027 51.44505081 22.65266393 51.73639693 14 51 C8.66925222 49.46260566 4.89883103 46.79422055 2 42 C0.17198626 36.71957214 -0.27319091 32.16350025 -0.1953125 26.66015625 C-0.1924826 25.89319931 -0.18965271 25.12624237 -0.18673706 24.33604431 C-0.17563475 21.91136379 -0.15054967 19.48706691 -0.125 17.0625 C-0.1149573 15.4082085 -0.10583372 13.75391115 -0.09765625 12.09960938 C-0.07572817 8.06626077 -0.04126843 4.0331952 0 0 Z " fill="#000000" transform="translate(186,230)"/>
<path d="M0 0 C1.134375 0.020625 2.26875 0.04125 3.4375 0.0625 C6.00556344 6.86009236 8.56853823 13.65958702 11.12792969 20.46044922 C11.9997956 22.77534748 12.8728395 25.08980242 13.74707031 27.40380859 C15.00112541 30.72378439 16.2509801 34.04531467 17.5 37.3671875 C17.89372803 38.40680634 18.28745605 39.44642517 18.69311523 40.51754761 C19.23367554 41.95881516 19.23367554 41.95881516 19.78515625 43.42919922 C20.10492432 44.27747284 20.42469238 45.12574646 20.75415039 45.99972534 C21.4375 48.0625 21.4375 48.0625 21.4375 50.0625 C18.7975 50.0625 16.1575 50.0625 13.4375 50.0625 C12.76718281 48.1054132 12.10135317 46.14678887 11.4375 44.1875 C11.06625 43.09695313 10.695 42.00640625 10.3125 40.8828125 C9.4375 38.0625 9.4375 38.0625 9.4375 36.0625 C3.1675 36.3925 -3.1025 36.7225 -9.5625 37.0625 C-11.2125 41.3525 -12.8625 45.6425 -14.5625 50.0625 C-16.8725 50.0625 -19.1825 50.0625 -21.5625 50.0625 C-20.90220119 44.40171642 -18.99610223 39.40104065 -17 34.10546875 C-16.47297485 32.69011589 -16.47297485 32.69011589 -15.93530273 31.24617004 C-15.19478908 29.26089084 -14.45165297 27.27658809 -13.70605469 25.29321289 C-12.56074228 22.24532237 -11.42426978 19.1942449 -10.2890625 16.14257812 C-9.56822409 14.21334888 -8.84688744 12.28430571 -8.125 10.35546875 C-7.61247681 8.9805854 -7.61247681 8.9805854 -7.08959961 7.57792664 C-6.7725708 6.73647598 -6.45554199 5.89502533 -6.12890625 5.02807617 C-5.84990479 4.28450363 -5.57090332 3.54093109 -5.28344727 2.77482605 C-3.96027965 -0.36783705 -3.78309101 0.06637002 0 0 Z M-0.5625 10.0625 C-3.31915244 16.63928502 -5.60318712 23.20490492 -7.5625 30.0625 C-2.9425 30.0625 1.6775 30.0625 6.4375 30.0625 C5.06875844 23.10473041 2.9841871 16.67646893 0.4375 10.0625 C0.1075 10.0625 -0.2225 10.0625 -0.5625 10.0625 Z " fill="#000000" transform="translate(243.5625,313.9375)"/>
<path d="M0 0 C1.134375 0.020625 2.26875 0.04125 3.4375 0.0625 C6.00556344 6.86009236 8.56853823 13.65958702 11.12792969 20.46044922 C11.9997956 22.77534748 12.8728395 25.08980242 13.74707031 27.40380859 C15.00112541 30.72378439 16.2509801 34.04531467 17.5 37.3671875 C17.89372803 38.40680634 18.28745605 39.44642517 18.69311523 40.51754761 C19.23367554 41.95881516 19.23367554 41.95881516 19.78515625 43.42919922 C20.10492432 44.27747284 20.42469238 45.12574646 20.75415039 45.99972534 C21.4375 48.0625 21.4375 48.0625 21.4375 50.0625 C18.7975 50.0625 16.1575 50.0625 13.4375 50.0625 C12.76718281 48.1054132 12.10135317 46.14678887 11.4375 44.1875 C11.06625 43.09695313 10.695 42.00640625 10.3125 40.8828125 C9.4375 38.0625 9.4375 38.0625 9.4375 36.0625 C3.1675 36.3925 -3.1025 36.7225 -9.5625 37.0625 C-11.2125 41.3525 -12.8625 45.6425 -14.5625 50.0625 C-16.8725 50.0625 -19.1825 50.0625 -21.5625 50.0625 C-20.90220119 44.40171642 -18.99610223 39.40104065 -17 34.10546875 C-16.47297485 32.69011589 -16.47297485 32.69011589 -15.93530273 31.24617004 C-15.19478908 29.26089084 -14.45165297 27.27658809 -13.70605469 25.29321289 C-12.56074228 22.24532237 -11.42426978 19.1942449 -10.2890625 16.14257812 C-9.56822409 14.21334888 -8.84688744 12.28430571 -8.125 10.35546875 C-7.61247681 8.9805854 -7.61247681 8.9805854 -7.08959961 7.57792664 C-6.7725708 6.73647598 -6.45554199 5.89502533 -6.12890625 5.02807617 C-5.84990479 4.28450363 -5.57090332 3.54093109 -5.28344727 2.77482605 C-3.96027965 -0.36783705 -3.78309101 0.06637002 0 0 Z M-0.5625 10.0625 C-3.31915244 16.63928502 -5.60318712 23.20490492 -7.5625 30.0625 C-2.9425 30.0625 1.6775 30.0625 6.4375 30.0625 C5.06875844 23.10473041 2.9841871 16.67646893 0.4375 10.0625 C0.1075 10.0625 -0.2225 10.0625 -0.5625 10.0625 Z " fill="#000000" transform="translate(70.5625,313.9375)"/>
<path d="M0 0 C1.134375 0.020625 2.26875 0.04125 3.4375 0.0625 C6.00556344 6.86009236 8.56853823 13.65958702 11.12792969 20.46044922 C11.9997956 22.77534748 12.8728395 25.08980242 13.74707031 27.40380859 C15.00112541 30.72378439 16.2509801 34.04531467 17.5 37.3671875 C17.89372803 38.40680634 18.28745605 39.44642517 18.69311523 40.51754761 C19.23367554 41.95881516 19.23367554 41.95881516 19.78515625 43.42919922 C20.10492432 44.27747284 20.42469238 45.12574646 20.75415039 45.99972534 C21.4375 48.0625 21.4375 48.0625 21.4375 50.0625 C18.7975 50.0625 16.1575 50.0625 13.4375 50.0625 C12.76718281 48.1054132 12.10135317 46.14678887 11.4375 44.1875 C11.06625 43.09695313 10.695 42.00640625 10.3125 40.8828125 C9.4375 38.0625 9.4375 38.0625 9.4375 36.0625 C3.1675 36.3925 -3.1025 36.7225 -9.5625 37.0625 C-11.2125 41.3525 -12.8625 45.6425 -14.5625 50.0625 C-16.8725 50.0625 -19.1825 50.0625 -21.5625 50.0625 C-20.90220119 44.40171642 -18.99610223 39.40104065 -17 34.10546875 C-16.47297485 32.69011589 -16.47297485 32.69011589 -15.93530273 31.24617004 C-15.19478908 29.26089084 -14.45165297 27.27658809 -13.70605469 25.29321289 C-12.56074228 22.24532237 -11.42426978 19.1942449 -10.2890625 16.14257812 C-9.56822409 14.21334888 -8.84688744 12.28430571 -8.125 10.35546875 C-7.61247681 8.9805854 -7.61247681 8.9805854 -7.08959961 7.57792664 C-6.7725708 6.73647598 -6.45554199 5.89502533 -6.12890625 5.02807617 C-5.84990479 4.28450363 -5.57090332 3.54093109 -5.28344727 2.77482605 C-3.96027965 -0.36783705 -3.78309101 0.06637002 0 0 Z M-0.5625 10.0625 C-3.31915244 16.63928502 -5.60318712 23.20490492 -7.5625 30.0625 C-2.9425 30.0625 1.6775 30.0625 6.4375 30.0625 C5.06875844 23.10473041 2.9841871 16.67646893 0.4375 10.0625 C0.1075 10.0625 -0.2225 10.0625 -0.5625 10.0625 Z " fill="#000000" transform="translate(488.5625,229.9375)"/>
<path d="M0 0 C1.134375 0.020625 2.26875 0.04125 3.4375 0.0625 C6.00556344 6.86009236 8.56853823 13.65958702 11.12792969 20.46044922 C11.9997956 22.77534748 12.8728395 25.08980242 13.74707031 27.40380859 C15.00112541 30.72378439 16.2509801 34.04531467 17.5 37.3671875 C17.89372803 38.40680634 18.28745605 39.44642517 18.69311523 40.51754761 C19.23367554 41.95881516 19.23367554 41.95881516 19.78515625 43.42919922 C20.10492432 44.27747284 20.42469238 45.12574646 20.75415039 45.99972534 C21.4375 48.0625 21.4375 48.0625 21.4375 50.0625 C18.7975 50.0625 16.1575 50.0625 13.4375 50.0625 C12.76718281 48.1054132 12.10135317 46.14678887 11.4375 44.1875 C11.06625 43.09695313 10.695 42.00640625 10.3125 40.8828125 C9.4375 38.0625 9.4375 38.0625 9.4375 36.0625 C3.1675 36.3925 -3.1025 36.7225 -9.5625 37.0625 C-11.2125 41.3525 -12.8625 45.6425 -14.5625 50.0625 C-16.8725 50.0625 -19.1825 50.0625 -21.5625 50.0625 C-20.90220119 44.40171642 -18.99610223 39.40104065 -17 34.10546875 C-16.47297485 32.69011589 -16.47297485 32.69011589 -15.93530273 31.24617004 C-15.19478908 29.26089084 -14.45165297 27.27658809 -13.70605469 25.29321289 C-12.56074228 22.24532237 -11.42426978 19.1942449 -10.2890625 16.14257812 C-9.56822409 14.21334888 -8.84688744 12.28430571 -8.125 10.35546875 C-7.61247681 8.9805854 -7.61247681 8.9805854 -7.08959961 7.57792664 C-6.7725708 6.73647598 -6.45554199 5.89502533 -6.12890625 5.02807617 C-5.84990479 4.28450363 -5.57090332 3.54093109 -5.28344727 2.77482605 C-3.96027965 -0.36783705 -3.78309101 0.06637002 0 0 Z M-0.5625 10.0625 C-3.31915244 16.63928502 -5.60318712 23.20490492 -7.5625 30.0625 C-2.9425 30.0625 1.6775 30.0625 6.4375 30.0625 C5.06875844 23.10473041 2.9841871 16.67646893 0.4375 10.0625 C0.1075 10.0625 -0.2225 10.0625 -0.5625 10.0625 Z " fill="#000000" transform="translate(346.5625,229.9375)"/>
<path d="M0 0 C3.125 -0.5625 3.125 -0.5625 7 0 C9.55013346 2.65265138 11.18932063 5.81538804 13 9 C14.28325191 11.02618723 15.57489907 13.0470825 16.875 15.0625 C17.91764553 16.70771339 18.95966892 18.35332211 20 20 C22.21968526 17.91547499 23.85715011 15.83625055 25.4453125 13.2421875 C25.88230469 12.53449219 26.31929687 11.82679688 26.76953125 11.09765625 C27.44048828 9.99744141 27.44048828 9.99744141 28.125 8.875 C29.02231283 7.41337145 29.92069448 5.95239835 30.8203125 4.4921875 C31.21492676 3.84620605 31.60954102 3.20022461 32.01611328 2.53466797 C33 1 33 1 34 0 C36.33297433 -0.04092937 38.66705225 -0.04241723 41 0 C39.45096229 5.93475073 36.29914233 10.60261907 33 15.6875 C32.18015625 16.96850586 32.18015625 16.96850586 31.34375 18.27539062 C29.2545358 21.53466719 27.14749023 24.77876466 25 28 C24.6336141 30.41713479 24.6336141 30.41713479 24.5859375 33.10546875 C24.54726563 34.08837891 24.50859375 35.07128906 24.46875 36.08398438 C24.42234375 37.62022461 24.42234375 37.62022461 24.375 39.1875 C24.33632813 40.22326172 24.29765625 41.25902344 24.2578125 42.32617188 C24.16351704 44.88393622 24.07791798 47.44169287 24 50 C21.69 50 19.38 50 17 50 C17.04302246 49.44876465 17.08604492 48.8975293 17.13037109 48.32958984 C18.20407436 30.55302135 12.42697937 20.0132206 2 6 C0 3 0 3 0 0 Z " fill="#000000" transform="translate(559,314)"/>
<path d="M0 0 C12.54 0 25.08 0 38 0 C38 2.31 38 4.62 38 7 C33.05 7 28.1 7 23 7 C23 21.19 23 35.38 23 50 C20.69 50 18.38 50 16 50 C16 35.81 16 21.62 16 7 C10.72 7 5.44 7 0 7 C0 4.69 0 2.38 0 0 Z " fill="#000000" transform="translate(469,314)"/>
<path d="M0 0 C2.31 0 4.62 0 7 0 C7 14.52 7 29.04 7 44 C14.92 44 22.84 44 31 44 C31 45.98 31 47.96 31 50 C20.77 50 10.54 50 0 50 C0 33.5 0 17 0 0 Z " fill="#000000" transform="translate(235,230)"/>
</svg>
